<?xml version="1.0" standalone="no"?>
<!DOCTYPE svg PUBLIC "-//W3C//DTD SVG 20010904//EN"
 "http://www.w3.org/TR/2001/REC-SVG-20010904/DTD/svg10.dtd">
<svg version="1.0" xmlns="http://www.w3.org/2000/svg"
 width="700.000000pt" height="700.000000pt" viewBox="0 0 700.000000 700.000000"
 preserveAspectRatio="xMidYMid meet">
<metadata>
Created by potrace 1.14, written by Peter Selinger 2001-2017
</metadata>
<g transform="translate(0.000000,700.000000) scale(0.100000,-0.100000)"
fill="#000000" stroke="none">
<path d="M3278 6996 c-1 -2 -41 -7 -88 -10 -81 -6 -119 -11 -185 -21 -16 -3
-50 -8 -75 -11 -25 -3 -106 -19 -180 -35 -924 -202 -1713 -759 -2225 -1569
-86 -137 -221 -408 -280 -562 -26 -68 -51 -132 -55 -143 -46 -110 -130 -462
-155 -645 -3 -25 -8 -56 -10 -70 -20 -133 -28 -582 -12 -725 4 -38 9 -97 13
-130 3 -33 12 -99 20 -147 181 -1082 846 -2008 1809 -2519 322 -171 602 -269
1015 -354 13 -2 85 -13 205 -30 141 -20 561 -27 725 -12 122 11 202 21 295 38
33 5 74 12 90 15 17 3 85 19 152 35 512 124 990 364 1400 703 201 167 439 419
584 620 32 45 62 86 67 91 31 39 159 256 223 380 155 299 290 695 333 980 2
11 7 40 10 65 4 25 9 52 11 60 2 8 7 47 10 85 4 39 9 84 12 100 9 55 11 509 2
597 -22 231 -44 367 -90 557 -153 623 -463 1174 -919 1632 -380 381 -799 647
-1310 829 -118 43 -325 101 -445 125 -44 9 -89 19 -100 21 -11 2 -40 7 -65 10
-25 3 -54 8 -65 10 -10 2 -49 6 -85 10 -36 3 -74 8 -85 11 -22 5 -541 13 -547
9z m289 -60 c4 -5 -4 -6 -19 -2 -22 5 -26 3 -22 -9 6 -15 -11 -22 -19 -7 -2 4
-2 1 -1 -5 5 -20 -7 -44 -19 -36 -6 4 -8 0 -4 -10 5 -12 1 -17 -13 -17 -11 0
-20 -5 -20 -11 0 -5 5 -7 11 -3 8 5 8 1 0 -13 -6 -11 -7 -24 -3 -28 4 -5 1 -5
-5 -1 -7 4 -21 2 -30 -4 -13 -8 -13 -10 -3 -7 11 3 16 -2 18 -16 1 -17 -1 -19
-8 -7 -7 11 -10 11 -10 2 0 -7 -5 -10 -10 -7 -6 4 -10 3 -9 -2 1 -4 0 -12 -1
-18 -2 -5 -4 -21 -4 -35 -1 -17 -7 -25 -18 -24 -11 1 -15 -5 -13 -17 2 -11 1
-19 -3 -19 -4 0 -16 -12 -26 -27 -11 -14 -14 -23 -8 -19 7 4 12 1 12 -8 0 -10
-6 -13 -15 -9 -10 3 -15 0 -13 -8 2 -8 -3 -13 -10 -11 -8 1 -11 -2 -7 -8 3 -6
11 -7 17 -4 6 4 6 0 -1 -13 -6 -11 -7 -24 -3 -28 4 -5 1 -5 -6 -1 -7 4 -10 12
-7 17 10 15 -2 10 -16 -8 -10 -11 -10 -14 -1 -9 6 4 12 2 12 -3 0 -6 -6 -11
-12 -11 -10 0 -10 -2 0 -9 11 -6 9 -9 -6 -13 -11 -3 -26 -1 -33 6 -11 9 -11 8
-1 -5 6 -9 8 -20 4 -25 -4 -4 0 -3 10 4 12 10 18 10 24 1 4 -7 3 -9 -4 -5 -6
4 -16 -4 -23 -16 -7 -13 -19 -29 -28 -36 -9 -8 -11 -11 -4 -8 7 4 11 -1 10
-14 -1 -13 -5 -16 -11 -10 -20 20 -29 9 -10 -12 10 -12 13 -18 7 -14 -7 4 -21
2 -30 -4 -14 -9 -14 -10 -2 -7 9 3 16 -1 16 -8 0 -8 -9 -12 -26 -9 -21 4 -23
2 -11 -7 12 -9 13 -12 1 -16 -9 -4 -10 -7 -2 -12 8 -6 9 -14 1 -32 -10 -22
-10 -23 -6 -1 2 12 0 22 -5 22 -5 0 -9 -5 -9 -11 0 -5 -6 -7 -12 -3 -9 5 -9 2
1 -9 12 -15 11 -17 -10 -17 -19 0 -21 -2 -9 -9 8 -6 19 -7 25 -4 5 4 1 -3 -9
-16 -11 -12 -25 -20 -32 -17 -9 3 -10 -3 -4 -25 5 -17 5 -27 0 -24 -12 7 -28
-25 -25 -52 1 -14 -3 -19 -12 -16 -10 4 -11 9 -3 18 8 10 7 15 -2 21 -7 4 -10
4 -6 -1 4 -4 3 -14 -4 -22 -8 -11 -7 -17 8 -28 18 -13 18 -14 -3 -8 -19 4 -22
2 -18 -16 2 -13 -2 -24 -10 -28 -8 -3 -13 -9 -10 -13 3 -5 1 -11 -5 -15 -6 -4
-7 -11 -4 -17 4 -7 2 -8 -5 -4 -8 6 -9 12 -2 20 8 9 7 13 -3 13 -9 0 -13 -8
-10 -24 3 -14 1 -22 -5 -19 -5 3 -15 -2 -22 -12 -13 -15 -12 -16 4 -3 9 7 17
11 17 8 0 -3 3 -13 7 -23 4 -12 3 -15 -5 -10 -8 5 -10 2 -5 -9 3 -9 9 -12 12
-7 3 5 14 8 24 6 9 -1 17 3 17 9 0 7 4 6 9 -3 6 -8 7 -18 5 -22 -3 -4 0 -8 5
-8 10 0 15 14 12 33 -1 5 3 6 9 2 6 -3 7 -12 3 -18 -3 -7 4 -3 18 8 18 15 20
16 10 3 -15 -21 -2 -24 18 -5 11 10 13 10 7 0 -4 -7 -2 -13 3 -13 6 0 11 6 12
13 0 10 2 10 6 0 2 -7 9 -13 14 -13 6 0 7 5 4 10 -3 6 -1 10 4 10 6 0 11 -4
11 -9 0 -5 7 -12 16 -15 13 -5 14 -3 6 7 -8 10 -6 13 8 13 10 0 17 -3 14 -7
-6 -10 17 -17 38 -11 10 2 15 9 11 15 -3 6 -1 7 5 3 6 -3 9 -16 7 -27 -3 -12
1 -31 7 -43 10 -18 9 -19 -3 -9 -12 10 -15 8 -14 -15 0 -15 -4 -31 -10 -35 -6
-5 -3 -7 7 -3 10 3 20 1 23 -3 2 -5 -4 -11 -15 -14 -18 -5 -26 -47 -7 -47 4 0
2 -6 -5 -14 -7 -8 -17 -11 -22 -8 -5 3 -6 0 -2 -7 6 -9 11 -9 22 0 12 10 13 9
8 -6 -6 -14 -4 -16 6 -10 8 5 11 4 6 -3 -4 -6 -14 -8 -23 -5 -11 4 -14 3 -9
-6 5 -7 0 -18 -10 -27 -14 -10 -15 -13 -3 -9 10 4 16 0 16 -9 0 -8 -4 -13 -8
-11 -4 3 -9 -2 -12 -10 -4 -10 -1 -12 11 -9 15 5 15 4 0 -6 -17 -11 -26 -36
-10 -26 5 3 9 -1 9 -9 0 -10 -5 -11 -18 -4 -27 14 -35 11 -13 -6 13 -10 14
-14 5 -15 -11 0 -11 -3 -1 -15 11 -13 10 -14 -3 -9 -12 4 -15 1 -12 -16 3 -17
1 -19 -9 -11 -11 9 -13 5 -10 -21 2 -18 0 -28 -4 -23 -10 14 -32 17 -32 4 0
-5 -5 -7 -10 -4 -8 5 -7 12 2 23 9 12 7 12 -9 -2 -13 -10 -20 -23 -16 -29 3
-6 1 -7 -6 -3 -6 4 -8 13 -4 19 3 7 -4 3 -16 -7 -17 -15 -20 -16 -16 -4 9 24
-37 18 -53 -7 -10 -15 -12 -16 -8 -3 3 10 1 20 -4 23 -6 4 -10 -1 -10 -10 0
-9 -4 -14 -9 -11 -14 9 -42 -5 -34 -18 4 -8 2 -8 -7 1 -7 6 -19 9 -28 6 -11
-5 -13 -2 -8 8 4 8 1 6 -7 -3 -11 -14 -16 -15 -27 -5 -10 10 -12 9 -7 -5 5
-15 4 -16 -14 -5 -16 10 -21 9 -29 -3 -9 -13 -10 -13 -10 0 -1 9 -6 6 -16 -10
-8 -14 -13 -17 -10 -7 3 9 4 17 2 17 -3 0 -11 3 -20 6 -11 4 -16 0 -16 -12 0
-16 2 -17 11 -4 9 13 10 13 6 0 -2 -8 -12 -15 -23 -15 -10 0 -25 -4 -32 -9 -7
-4 -16 -5 -19 -2 -4 3 -1 6 6 6 7 0 9 5 6 10 -4 6 -12 7 -18 3 -7 -5 -25 -9
-42 -10 -16 -2 -39 -3 -50 -4 -11 -1 -26 -6 -32 -12 -9 -6 -13 -6 -13 2 0 8
-5 8 -19 -1 -11 -7 -18 -16 -15 -20 3 -4 -3 -5 -12 -1 -13 5 -15 3 -10 -8 4
-8 1 -7 -5 2 -11 14 -14 14 -31 -3 -18 -18 -21 -18 -31 -4 -8 11 -17 13 -27 6
-8 -5 -11 -12 -7 -17 5 -4 13 -1 18 7 9 13 10 13 6 0 -2 -8 -10 -15 -18 -15
-8 0 -21 -4 -29 -9 -12 -7 -13 -6 -2 5 6 7 12 17 12 23 0 5 -8 0 -17 -10 -20
-21 -60 -33 -48 -14 6 9 2 9 -14 1 -11 -7 -21 -14 -21 -17 0 -3 5 -2 12 2 6 4
8 3 5 -3 -9 -15 -53 -10 -49 6 1 7 -2 10 -7 6 -6 -3 -8 -11 -5 -18 3 -9 -7
-12 -31 -11 -25 1 -35 -2 -35 -13 0 -10 -7 -14 -18 -11 -15 4 -18 0 -16 -18 1
-16 -2 -21 -12 -17 -9 3 -14 -1 -14 -12 0 -10 5 -13 12 -9 7 5 8 3 3 -5 -4 -7
-16 -11 -26 -8 -10 3 -22 0 -26 -5 -3 -6 -1 -8 4 -5 24 15 19 -23 -7 -51 -15
-17 -25 -33 -22 -36 3 -3 -5 -6 -17 -6 -12 0 -19 -4 -16 -10 4 -6 11 -8 16 -5
5 4 6 -2 2 -11 -4 -11 -8 -13 -11 -6 -2 7 -8 9 -13 6 -6 -3 -5 -11 2 -20 10
-12 9 -13 -7 -7 -16 6 -17 4 -7 -9 15 -17 8 -29 -12 -22 -9 4 -13 -2 -11 -19
2 -18 -1 -24 -10 -20 -9 3 -14 -2 -14 -12 0 -10 -4 -13 -12 -9 -10 6 -10 4 0
-8 11 -14 10 -18 -10 -29 -13 -7 -27 -12 -32 -11 -5 2 -1 -9 8 -23 17 -26 17
-26 -2 -16 -14 7 -19 7 -19 -4 0 -8 4 -12 8 -10 4 3 5 -4 2 -15 -3 -11 -10
-20 -15 -20 -5 0 -6 5 -2 12 4 7 3 8 -5 4 -9 -6 -9 -11 1 -24 11 -13 11 -14
-1 -7 -11 6 -13 4 -8 -9 4 -10 3 -15 -3 -11 -6 3 -10 1 -10 -5 0 -6 -6 -8 -12
-4 -10 5 -10 4 -1 -6 13 -14 7 -40 -9 -40 -6 0 -4 8 3 18 13 15 12 16 -3 4 -9
-7 -15 -24 -13 -38 2 -24 -9 -38 -30 -39 -5 0 -9 -9 -7 -19 2 -13 -1 -16 -10
-10 -10 6 -10 4 1 -9 12 -15 11 -17 -2 -17 -11 0 -14 -6 -11 -15 5 -11 2 -13
-10 -9 -9 3 -16 1 -16 -5 0 -6 6 -11 13 -11 9 0 8 -3 -2 -9 -9 -6 -10 -10 -2
-16 14 -8 -4 -35 -22 -35 -6 0 -2 7 9 15 10 8 14 15 9 15 -23 0 -33 -22 -24
-54 8 -29 7 -30 -6 -12 -17 23 -20 14 -4 -15 10 -19 9 -20 -13 -9 -22 12 -22
11 -6 -5 13 -14 14 -24 7 -43 -5 -14 -7 -27 -4 -30 3 -3 5 0 5 6 0 7 9 12 20
12 11 0 20 -5 20 -11 0 -6 7 -3 16 5 18 19 38 21 28 4 -6 -10 -5 -10 8 -1 8 7
18 9 23 5 4 -4 4 4 0 18 -7 22 -6 23 8 12 10 -9 17 -10 22 -2 3 6 11 8 16 5 5
-3 6 1 3 9 -6 16 5 21 35 17 7 -2 10 2 7 8 -4 5 -2 13 4 16 6 4 9 1 8 -6 -2
-6 3 -14 10 -16 8 -3 10 1 6 11 -5 12 -2 15 12 9 12 -4 15 -3 10 6 -4 6 -4 11
1 10 4 -1 10 0 13 1 21 8 39 7 34 -2 -4 -7 -2 -8 4 -4 16 9 15 23 0 29 -7 2
-5 3 4 2 9 -2 26 4 37 11 12 9 22 11 26 4 3 -5 11 -10 16 -10 6 0 7 5 3 12 -5
8 -2 9 9 5 11 -4 17 -1 17 9 0 9 -5 12 -12 8 -7 -4 -8 -3 -4 5 5 7 12 9 19 3
19 -14 34 -9 56 20 21 26 52 31 59 9 3 -8 11 -4 23 10 10 12 16 25 14 29 -3 5
4 6 15 3 11 -3 17 -10 13 -16 -3 -6 -1 -7 5 -3 7 4 12 14 12 22 0 11 4 12 19
5 14 -8 22 -7 32 7 13 15 12 16 -3 4 -12 -10 -18 -10 -24 -1 -4 7 -3 9 4 5 6
-3 14 -2 17 4 5 8 11 7 21 -1 11 -9 14 -8 14 6 0 17 1 17 22 -1 22 -19 22 -19
8 0 -14 18 -13 19 4 13 17 -7 17 -6 5 10 -9 11 -10 14 -1 9 6 -4 18 -4 25 1
17 11 41 10 49 -2 4 -6 8 -2 8 8 0 9 7 17 16 17 9 0 12 5 8 13 -6 9 -3 8 8 -1
12 -10 22 -11 36 -3 11 6 22 7 26 4 3 -3 6 -1 6 5 0 5 -6 13 -12 16 -7 3 -4 4
7 3 11 -1 19 3 18 10 -3 13 22 12 34 -2 4 -4 3 -5 -3 -2 -16 9 -39 -19 -24
-28 6 -4 9 -1 8 6 -2 7 4 13 12 14 8 0 14 9 14 18 -2 17 -1 17 17 1 19 -17 20
-17 13 0 -5 14 -3 17 7 14 8 -3 13 -11 11 -17 -1 -7 2 -10 7 -7 5 4 8 14 6 24
-2 12 3 18 15 18 16 0 17 -3 7 -16 -10 -13 -10 -13 5 -2 10 8 23 10 30 6 11
-6 11 -5 0 8 -10 13 -10 18 -1 24 7 4 9 3 6 -3 -4 -6 2 -13 14 -16 17 -5 18
-3 8 9 -10 12 -9 13 6 8 12 -5 16 -4 12 3 -5 7 5 9 29 6 29 -4 35 -2 29 9 -5
7 -5 10 0 6 4 -4 15 -3 25 2 10 5 21 6 25 2 3 -4 12 -7 18 -7 12 -1 13 -7 2
-40 -4 -14 -2 -12 8 5 10 16 12 29 6 37 -7 7 -6 14 2 19 7 4 9 3 5 -4 -3 -5
-1 -12 5 -14 9 -3 9 -10 0 -26 -7 -12 -9 -28 -5 -34 5 -7 3 -8 -6 -3 -9 6 -12
4 -8 -7 4 -8 0 -15 -8 -15 -7 0 -11 4 -8 8 2 4 0 10 -5 13 -10 7 -9 -20 2 -30
4 -4 7 -12 7 -18 0 -6 -4 -4 -10 4 -5 8 -12 11 -16 7 -4 -3 -1 -13 6 -22 12
-14 7 -20 -14 -16 -5 1 -6 -5 -3 -13 4 -9 2 -18 -4 -21 -5 -4 -7 -10 -4 -15 7
-11 -24 -22 -37 -13 -7 4 -8 1 -2 -8 13 -21 14 -38 2 -46 -6 -3 -8 -1 -4 5 3
6 1 14 -6 18 -7 4 -10 4 -6 -1 4 -4 3 -14 -3 -21 -7 -8 -6 -14 2 -20 8 -5 9
-3 4 6 -5 9 -4 11 4 6 15 -10 5 -26 -17 -26 -13 0 -13 -2 4 -14 10 -8 16 -18
11 -22 -4 -4 -7 -2 -7 4 0 7 -8 12 -17 12 -15 0 -16 -2 -3 -10 9 -6 11 -10 3
-10 -7 0 -10 -7 -6 -17 4 -11 3 -14 -5 -9 -16 10 -15 -7 1 -23 10 -10 9 -12
-3 -9 -8 2 -14 -2 -15 -9 0 -7 -6 -18 -14 -25 -8 -7 -11 -8 -8 -2 3 6 0 11 -8
11 -8 0 -11 -5 -8 -10 3 -5 -1 -14 -8 -19 -10 -6 -7 -7 10 -3 16 5 21 4 17 -4
-4 -6 -14 -11 -22 -11 -8 0 -12 -4 -9 -10 3 -5 -1 -10 -10 -10 -9 0 -14 -4
-10 -10 3 -5 13 -6 23 -3 16 6 16 6 0 -11 -10 -9 -18 -22 -18 -28 0 -6 -9 -8
-19 -5 -14 3 -18 1 -14 -9 3 -8 9 -12 13 -9 5 3 12 1 15 -5 4 -6 1 -9 -7 -8
-7 2 -12 -4 -10 -12 1 -10 -3 -9 -14 5 -15 19 -15 19 -9 -7 6 -23 4 -28 -11
-28 -14 0 -15 -3 -6 -9 10 -6 8 -13 -8 -32 l-21 -24 11 25 c10 24 10 24 -4 6
-11 -13 -13 -23 -6 -31 11 -13 -12 -40 -23 -28 -4 3 -7 2 -7 -3 0 -6 5 -15 11
-21 8 -8 6 -11 -7 -10 -13 2 -19 -5 -19 -19 -1 -29 -23 -54 -49 -55 -11 0 -15
-3 -8 -6 6 -2 10 -9 6 -14 -3 -5 0 -9 5 -9 6 0 11 -5 11 -10 0 -7 -6 -7 -20 0
-14 7 -20 7 -20 0 0 -5 6 -10 13 -10 8 0 7 -3 -3 -10 -9 -6 -19 -5 -29 3 -10
8 -8 3 3 -15 10 -16 16 -29 12 -29 -3 -1 -12 -2 -18 -3 -7 0 -13 -13 -12 -28
1 -24 -1 -26 -19 -17 -11 7 -17 7 -13 1 3 -5 -1 -15 -9 -22 -8 -7 -12 -17 -8
-23 4 -7 -1 -8 -13 -4 -18 7 -18 6 -1 -7 23 -18 22 -30 -3 -23 -10 3 -19 2
-18 -2 3 -25 -4 -51 -12 -46 -6 4 -7 11 -4 17 4 6 2 8 -4 5 -5 -4 -8 -16 -5
-27 3 -11 10 -17 16 -13 6 3 7 1 3 -6 -4 -6 -12 -9 -17 -5 -12 7 -41 -15 -33
-27 2 -5 -5 -25 -16 -46 -12 -21 -19 -30 -16 -20 3 10 2 15 -4 12 -6 -3 -10
-13 -10 -21 0 -8 -6 -14 -12 -14 -9 0 -8 -4 2 -10 12 -8 10 -10 -10 -11 -23 0
-23 -1 -5 -9 14 -6 16 -9 5 -10 -8 -2 -19 -2 -25 -1 -5 1 -1 -6 10 -14 19 -16
19 -16 -7 -11 -26 4 -27 3 -16 -17 11 -21 10 -21 -7 -7 -17 14 -18 13 -12 -2
4 -12 2 -18 -7 -18 -9 0 -12 -8 -9 -22 3 -17 2 -19 -5 -10 -7 11 -11 7 -17
-15 -5 -15 -7 -34 -6 -40 1 -7 -3 -13 -9 -13 -6 0 -9 4 -6 9 3 5 0 11 -8 14
-10 4 -12 0 -9 -14 3 -11 0 -19 -6 -19 -7 0 -9 5 -5 12 4 6 3 8 -4 5 -5 -4 -9
-18 -7 -32 1 -16 -5 -31 -16 -39 -11 -7 -16 -16 -11 -21 4 -5 1 -4 -7 0 -11 6
-13 4 -8 -9 5 -11 3 -15 -5 -10 -7 5 -9 2 -6 -8 5 -11 0 -14 -19 -12 -14 1
-22 0 -19 -3 3 -4 -2 -16 -11 -27 -13 -15 -10 -14 12 4 16 14 24 18 17 9 -6
-9 -8 -20 -4 -24 4 -5 1 -5 -6 -1 -7 4 -15 1 -18 -8 -3 -9 -11 -13 -16 -9 -7
4 -9 -4 -6 -20 4 -23 3 -25 -14 -16 -13 7 -18 7 -16 -3 2 -6 -4 -12 -12 -13
-8 0 -16 -6 -16 -12 -1 -7 -3 -14 -4 -15 -1 -2 -3 -15 -4 -30 -1 -15 -6 -31
-10 -35 -5 -4 -6 -3 -2 4 4 8 -1 11 -13 10 -13 -1 -17 -5 -11 -12 11 -14 -3
-37 -20 -33 -7 2 -15 -3 -18 -11 -3 -9 0 -11 9 -6 8 5 3 -4 -10 -18 -14 -15
-21 -27 -17 -27 4 0 4 -5 1 -10 -4 -6 -11 -8 -16 -4 -6 4 -3 14 7 25 9 11 14
22 11 26 -4 3 -7 1 -7 -6 0 -7 -5 -9 -12 -5 -6 4 -8 3 -5 -3 4 -6 0 -16 -8
-23 -13 -11 -13 -14 2 -26 17 -13 17 -14 0 -8 -14 5 -16 2 -10 -12 7 -18 6
-18 -11 -1 -23 23 -29 22 -16 -3 6 -11 7 -21 3 -21 -4 -1 -14 -2 -21 -3 -7 0
-21 -14 -30 -31 -9 -16 -18 -32 -19 -34 -2 -2 -11 2 -20 10 -15 10 -16 10 -6
0 8 -9 9 -21 2 -38 -10 -27 -39 -60 -39 -45 0 5 7 15 15 22 8 7 15 18 15 24 0
6 -5 3 -11 -7 -6 -9 -15 -14 -21 -11 -7 4 -8 2 -4 -5 4 -6 0 -14 -9 -17 -13
-6 -14 -8 -3 -15 10 -7 10 -9 1 -9 -7 0 -13 -4 -13 -10 0 -5 8 -7 18 -4 14 5
14 4 2 -4 -10 -8 -19 -7 -29 1 -12 9 -13 9 -7 0 5 -9 1 -13 -10 -13 -16 0 -16
-1 2 -15 18 -13 18 -14 -7 -10 -23 4 -26 2 -24 -19 2 -19 -1 -23 -13 -19 -11
5 -13 3 -7 -7 6 -10 4 -12 -8 -7 -9 3 -16 3 -16 -1 4 -22 -2 -42 -11 -37 -5 3
-10 1 -10 -5 0 -6 -5 -8 -12 -4 -7 5 -9 2 -5 -8 3 -10 -4 -25 -18 -38 -14 -13
-22 -27 -18 -33 3 -6 1 -7 -6 -3 -8 5 -9 12 -2 20 6 8 6 17 0 26 -8 12 -9 11
-7 -5 2 -12 -2 -19 -10 -17 -10 2 -10 -2 -3 -17 8 -15 7 -20 -5 -25 -8 -3 -12
-11 -9 -16 4 -6 1 -9 -7 -8 -7 2 -12 -2 -11 -9 2 -8 -4 -10 -14 -6 -12 5 -14
3 -8 -8 8 -12 6 -12 -9 0 -9 8 -16 10 -15 5 4 -20 -1 -57 -7 -51 -4 3 -15 -4
-26 -16 l-19 -22 11 23 c16 33 7 38 -10 6 -12 -22 -12 -27 0 -34 9 -6 10 -10
3 -10 -6 0 -15 5 -18 10 -9 15 -25 2 -19 -14 8 -20 -14 -30 -34 -15 -12 10
-11 6 3 -10 l20 -24 -24 13 c-13 6 -21 8 -17 2 3 -5 -5 -17 -19 -26 -17 -11
-23 -23 -20 -38 4 -21 3 -22 -9 -5 -12 16 -14 16 -20 2 -3 -9 -11 -13 -17 -9
-8 4 -9 3 -5 -5 6 -9 11 -9 22 0 12 10 13 9 8 -5 -3 -9 -12 -16 -20 -16 -8 0
-14 -5 -14 -11 0 -5 -6 -7 -12 -3 -8 5 -7 0 2 -11 10 -12 10 -16 2 -11 -7 4
-19 2 -27 -4 -12 -10 -15 -10 -15 0 0 8 -2 11 -5 8 -3 -3 -1 -18 5 -33 9 -24
8 -26 -3 -16 -11 9 -17 7 -28 -6 -8 -9 -9 -14 -2 -10 6 4 14 3 17 -2 4 -5 -5
-8 -19 -6 -14 1 -29 -3 -33 -9 -4 -7 -18 -20 -32 -30 -14 -10 -17 -16 -7 -12
9 3 25 9 35 12 14 5 13 4 -3 -9 -11 -9 -27 -17 -35 -17 -13 0 -13 -1 0 -10 8
-5 10 -10 4 -10 -5 0 -15 5 -21 11 -9 9 -11 5 -9 -13 2 -20 -1 -23 -23 -22
-37 2 -57 -6 -40 -17 7 -4 19 -3 25 2 8 7 15 6 20 -2 4 -7 3 -9 -4 -5 -6 3
-14 2 -17 -4 -4 -6 -16 -8 -28 -4 -21 6 -21 6 -3 -8 12 -10 15 -17 8 -22 -6
-3 -14 -1 -17 5 -5 7 -14 3 -27 -10 -11 -12 -24 -18 -31 -14 -7 4 -6 -1 2 -11
10 -12 11 -20 4 -27 -8 -8 -13 -7 -18 2 -6 8 -4 10 5 4 9 -6 11 -4 5 5 -6 9
-16 3 -40 -21 -18 -19 -31 -37 -28 -42 4 -6 -20 -11 -40 -8 -5 1 -6 -3 -2 -9
3 -6 10 -8 14 -6 4 3 8 -1 8 -9 0 -11 -5 -12 -21 -3 -20 10 -20 10 -6 -7 14
-17 14 -18 -8 -6 -12 6 -22 8 -21 4 1 -4 1 -17 0 -27 -1 -19 -1 -19 -14 -1
-13 17 -14 16 -13 -6 1 -18 -5 -25 -22 -27 -12 -2 -20 -8 -17 -13 4 -5 4 -9 1
-9 -16 0 -171 283 -238 434 -77 173 -171 444 -198 571 -5 22 -20 92 -34 155
-13 63 -28 142 -31 175 -4 33 -9 62 -10 65 -2 3 -6 46 -10 95 -4 50 -9 101
-11 115 -6 37 -6 393 1 485 5 71 16 162 31 275 3 19 9 58 14 85 6 28 13 68 16
90 10 70 64 265 110 405 129 389 326 748 593 1080 106 132 364 390 501 502
395 320 859 551 1345 668 88 21 176 41 195 44 19 3 76 12 125 20 124 20 171
25 315 32 69 4 126 7 127 8 7 5 133 -11 140 -18z m298 -1 c17 -2 55 -7 85 -10
357 -42 802 -181 1134 -354 336 -174 579 -354 857 -631 324 -323 540 -638 723
-1054 51 -114 156 -409 170 -476 3 -14 15 -65 27 -115 23 -101 22 -97 43 -220
34 -203 46 -345 48 -555 1 -181 -15 -409 -37 -529 -1 -9 -6 -36 -10 -61 -79
-521 -320 -1083 -648 -1514 -326 -429 -760 -787 -1227 -1013 -74 -36 -144 -69
-155 -74 -153 -65 -331 -126 -511 -174 -67 -18 -294 -63 -353 -70 -25 -3 -55
-8 -66 -10 -18 -3 -72 -9 -205 -20 -57 -5 -410 -5 -470 -1 -135 11 -244 23
-295 32 -11 2 -33 7 -50 9 -16 3 -55 10 -85 16 -30 6 -68 13 -85 16 -133 22
-455 127 -642 208 -401 175 -732 403 -1053 724 -168 169 -175 176 -278 308
-75 95 -88 120 -66 120 8 0 14 -4 14 -8 0 -4 7 -9 15 -13 12 -4 13 -2 5 13 -7
15 -6 19 5 17 8 -1 18 -6 22 -11 4 -4 2 -5 -6 0 -9 5 -12 4 -8 -2 4 -5 19 -9
34 -8 15 1 34 -2 40 -8 9 -6 16 -2 22 14 5 13 10 18 10 11 1 -8 6 -10 14 -6 8
5 8 2 -2 -9 -13 -16 -11 -16 25 -1 25 10 40 12 42 6 2 -6 10 -8 19 -5 12 5 14
3 8 -7 -6 -9 -4 -11 4 -6 7 5 10 15 7 25 -5 14 -4 13 8 -1 16 -22 30 -23 22
-3 -5 13 -2 14 16 4 16 -9 18 -13 7 -20 -9 -6 -10 -9 -2 -9 6 0 14 4 17 9 7
10 25 9 43 -2 6 -4 15 -2 19 4 4 8 3 9 -4 5 -7 -4 -12 -2 -12 3 0 6 9 11 21
11 11 0 18 -4 14 -9 -3 -5 -1 -12 4 -15 5 -4 13 -1 17 5 5 8 3 9 -6 4 -9 -5
-11 -4 -6 4 4 6 13 8 19 4 19 -12 49 -14 42 -3 -3 5 -1 10 4 10 6 0 11 -6 12
-12 0 -10 2 -10 6 0 2 6 9 12 14 12 6 0 7 -5 3 -11 -3 -6 5 -4 19 5 21 14 27
15 38 3 16 -15 63 -17 76 -3 5 6 2 6 -7 1 -13 -8 -13 -7 -1 8 18 22 20 22 16
-8 -2 -20 0 -23 11 -14 8 6 14 8 15 3 0 -5 4 0 9 11 7 16 9 17 9 3 1 -22 17
-32 27 -17 5 8 3 9 -7 4 -8 -5 -10 -4 -6 0 15 17 39 14 32 -3 -5 -14 -4 -14 6
-5 9 9 16 9 25 2 10 -8 12 -6 9 12 l-4 22 20 -21 c21 -24 39 -31 20 -9 -8 10
-7 14 4 14 8 0 15 -3 15 -7 0 -3 11 -6 25 -6 31 0 32 4 3 16 -17 6 -18 9 -6 9
9 1 24 -6 32 -15 16 -15 21 -9 17 21 -1 6 7 0 18 -12 10 -12 21 -19 25 -16 3
3 1 11 -4 18 -7 8 -5 12 5 12 8 0 12 -4 9 -8 -6 -10 38 -8 53 3 7 5 14 4 18
-3 6 -8 10 -7 17 2 7 10 8 8 3 -8 -5 -17 -2 -21 12 -18 10 1 24 -3 32 -9 11
-8 13 -8 8 0 -4 7 0 17 8 24 13 11 14 10 10 -2 -4 -9 0 -18 9 -21 10 -4 13 -1
9 9 -3 7 0 14 6 14 6 0 11 -6 12 -12 0 -9 2 -9 6 1 5 11 7 11 14 0 6 -10 9
-11 9 -1 0 6 5 12 11 12 5 0 8 -4 4 -9 -3 -5 -1 -13 5 -16 6 -4 9 -1 8 6 -2 6
3 14 11 17 8 3 11 0 7 -7 -4 -6 -2 -11 3 -11 6 0 11 4 11 9 0 5 7 11 14 14 11
4 13 1 10 -11 -4 -12 0 -11 14 6 12 13 23 18 27 12 3 -5 1 -10 -5 -10 -6 0 -8
-4 -5 -10 4 -6 17 -3 33 7 17 10 22 12 14 3 -15 -17 -16 -30 -1 -30 5 0 7 5 3
12 -5 7 -2 9 9 5 12 -4 15 -1 11 11 -5 15 -4 15 6 0 12 -20 35 -25 24 -5 -4 6
1 4 12 -5 16 -16 20 -16 35 -2 14 13 20 13 38 2 17 -11 25 -11 42 0 12 8 18 9
14 3 -3 -6 -1 -11 4 -11 6 0 11 6 11 13 0 8 3 8 9 -2 8 -13 12 -13 27 0 16 12
17 12 11 -3 -3 -10 -2 -18 3 -18 6 0 10 8 10 18 0 14 2 15 10 2 9 -13 10 -13
10 0 0 13 1 13 10 0 5 -8 10 -13 11 -10 6 34 9 43 15 48 4 4 4 -1 1 -10 -4
-10 -2 -18 3 -18 13 0 31 36 22 45 -4 5 -1 5 6 1 7 -4 10 -13 6 -19 -3 -7 1
-4 9 5 8 10 18 14 22 10 5 -4 5 -1 1 6 -4 7 -12 10 -17 7 -5 -3 -6 1 -3 9 7
19 20 21 28 4 4 -7 4 -3 2 10 -3 18 -2 21 8 12 10 -8 13 -5 12 12 -2 26 12 50
24 43 5 -3 11 -1 15 5 3 5 1 10 -4 10 -6 0 -11 4 -11 9 0 4 11 7 24 6 19 -3
23 1 18 18 -4 14 -2 18 7 12 10 -6 11 -2 6 16 -4 13 -4 21 0 17 12 -12 35 11
28 28 -4 12 -8 12 -22 2 -14 -12 -14 -11 -3 4 8 9 19 15 26 12 19 -7 44 25 27
35 -10 6 -9 10 3 14 9 4 16 1 17 -6 0 -7 4 -2 10 11 5 13 13 21 19 17 6 -4 7
1 3 10 -5 14 -8 14 -15 3 -8 -10 -9 -10 -5 2 2 8 8 15 14 15 5 0 17 8 27 18
10 9 14 17 9 17 -5 0 -14 -5 -21 -12 -8 -8 -12 -8 -12 -1 0 6 7 14 16 17 9 3
12 11 8 18 -5 8 -1 8 12 -2 10 -8 16 -10 12 -6 -4 5 -2 16 5 24 10 13 9 14 -3
7 -12 -6 -13 -5 -3 5 10 11 15 11 30 -1 16 -13 17 -12 5 3 -11 14 -10 18 5 27
15 9 13 10 -12 6 -27 -5 -28 -4 -7 5 14 6 20 14 16 22 -5 7 -2 9 7 6 11 -4 14
1 13 24 -2 24 0 27 12 17 8 -7 17 -9 21 -5 3 3 2 6 -4 6 -5 0 -10 7 -10 15 0
8 5 11 10 8 6 -4 8 0 4 10 -3 8 1 21 9 27 8 7 14 19 14 27 0 10 6 13 16 9 14
-5 15 -4 4 9 -11 13 -10 14 4 9 14 -5 16 -2 12 19 -3 20 -1 25 13 22 14 -2 17
2 15 21 -1 13 2 24 8 24 6 0 7 -8 3 -18 -5 -13 -3 -14 5 -6 13 13 50 7 50 -7
0 -5 8 -9 18 -9 9 0 23 -10 31 -22 13 -22 13 -22 -6 -8 -10 8 -6 3 11 -12 16
-15 33 -25 39 -21 5 3 4 -5 -3 -18 l-11 -24 20 24 c23 26 27 21 9 -12 -10 -20
-10 -21 5 -8 15 12 17 11 17 -3 0 -9 5 -16 11 -16 5 0 7 5 3 12 -4 7 -3 8 4 4
6 -4 8 -14 5 -23 -5 -13 -2 -15 15 -11 12 3 21 3 20 -1 -3 -23 4 -32 18 -27
11 4 15 2 11 -6 -7 -20 18 -39 32 -25 9 9 10 8 5 -7 -5 -13 -4 -17 4 -12 8 4
12 0 12 -11 0 -15 2 -16 10 -3 7 11 10 11 10 2 0 -7 4 -10 10 -7 5 3 10 -1 10
-10 0 -10 -5 -13 -12 -9 -9 5 -9 3 1 -9 13 -17 36 -14 26 4 -3 5 1 6 9 3 9 -3
16 -15 16 -25 0 -10 5 -19 11 -19 5 0 7 -5 3 -12 -4 -7 -3 -8 5 -4 9 6 9 12
-1 24 -8 11 -4 10 11 -3 13 -11 26 -20 29 -20 4 0 5 -9 4 -20 -2 -17 -1 -17 7
-5 9 13 11 12 12 -5 l0 -20 9 20 c8 19 9 19 9 -4 1 -15 6 -21 14 -18 7 3 21
-1 31 -9 11 -7 23 -11 29 -7 6 3 7 1 3 -5 -3 -6 1 -17 9 -25 8 -9 15 -20 15
-24 0 -5 14 -8 30 -7 24 2 28 -1 20 -11 -7 -9 -6 -16 7 -26 9 -8 14 -9 10 -3
-4 7 0 14 8 17 10 4 12 1 8 -11 -6 -15 -5 -15 10 -3 15 12 17 12 12 -2 -4 -8
-1 -18 6 -23 7 -4 10 -3 6 3 -3 5 0 10 7 10 8 0 12 -7 8 -15 -4 -11 1 -14 20
-10 16 3 25 0 25 -9 0 -7 -5 -13 -10 -13 -6 0 -7 -3 -4 -6 4 -4 13 -1 22 6 13
11 15 9 16 -11 0 -22 1 -23 9 -4 8 18 9 18 9 2 1 -10 5 -16 10 -13 5 4 12 0
14 -6 4 -10 8 -10 15 1 8 11 11 9 17 -8 3 -11 11 -21 16 -21 6 0 7 -6 3 -12
-5 -9 -2 -9 9 1 11 9 17 10 17 2 0 -6 6 -11 14 -11 8 0 17 -7 20 -16 4 -9 9
-14 13 -11 3 4 15 2 26 -4 14 -8 18 -8 13 0 -4 6 -2 11 3 11 6 0 11 -7 11 -15
0 -8 5 -15 11 -15 5 0 7 5 3 12 -4 7 -3 8 5 4 6 -4 9 -11 6 -16 -10 -16 41
-30 66 -18 11 5 21 2 30 -10 13 -15 12 -16 -4 -3 -15 12 -17 12 -11 -3 7 -19
15 -20 33 -3 11 10 13 9 8 -6 -4 -11 -3 -16 4 -12 5 4 17 1 25 -6 12 -10 13
-9 8 7 -5 18 -5 18 10 0 9 -11 16 -14 16 -8 0 7 5 12 11 12 5 0 7 -5 3 -11 -4
-8 0 -9 15 -4 15 4 19 3 16 -7 -4 -9 4 -14 25 -14 25 -1 30 2 26 15 -5 14 -5
14 6 0 7 -8 27 -15 45 -15 23 1 29 4 22 13 -6 7 -7 13 0 17 5 3 11 1 13 -6 3
-8 11 -5 23 10 11 12 23 22 28 22 4 0 18 9 30 20 12 11 27 18 33 16 8 -3 11 2
9 15 -3 16 -1 17 15 9 15 -8 18 -6 15 8 -3 22 14 44 28 35 7 -4 8 0 3 13 -4
10 -4 15 0 11 4 -4 14 -1 23 5 13 10 14 10 4 -2 -7 -8 -13 -19 -13 -24 0 -6 7
0 16 12 8 12 12 26 9 32 -4 6 1 7 11 3 13 -5 16 -3 11 9 -9 24 4 30 24 12 18
-16 22 -2 6 23 -6 9 -3 11 8 7 10 -4 15 -2 13 6 -2 7 3 15 10 17 8 3 10 -2 6
-14 -4 -14 -3 -15 4 -4 5 7 16 18 23 23 11 8 10 9 -3 4 -10 -3 -18 -1 -18 4 0
6 5 10 11 10 5 0 7 6 3 13 -6 9 -5 9 8 0 17 -14 28 -8 28 17 0 25 44 62 57 49
7 -7 10 -3 8 15 -3 23 -1 25 17 15 17 -9 18 -8 9 9 -9 18 -8 19 12 15 18 -4
19 -3 7 6 -13 9 -12 11 4 11 12 0 16 5 13 14 -4 10 -1 13 7 10 7 -3 18 7 24
22 10 22 15 24 27 14 13 -11 14 -10 9 5 -5 13 -4 16 4 11 8 -4 12 0 12 10 0
16 1 16 15 -2 13 -18 14 -18 8 5 -5 19 -3 22 8 16 12 -7 12 -6 1 7 -11 13 -10
16 5 14 10 0 23 11 31 26 8 17 21 28 34 28 18 0 19 2 7 17 -10 11 -10 14 -1 9
7 -4 12 -2 12 6 0 10 2 11 8 0 6 -9 12 -5 20 13 8 17 17 23 25 19 8 -6 8 -3
-1 9 -12 14 -11 16 8 12 19 -4 20 -2 8 12 -12 15 -11 15 9 5 19 -11 21 -10 18
7 -4 19 31 51 61 55 22 3 28 15 10 22 -9 3 -13 10 -10 15 3 5 9 7 14 4 4 -3
11 2 14 10 4 12 2 13 -13 6 -10 -6 -21 -8 -24 -4 -4 3 -5 -4 -2 -16 4 -24 -10
-29 -19 -6 -3 8 -11 15 -18 14 -10 0 -10 -2 0 -6 10 -4 10 -8 0 -21 -10 -12
-10 -14 0 -8 6 4 12 2 12 -3 0 -15 -13 -14 -29 2 -10 10 -15 9 -25 -5 -7 -10
-17 -14 -22 -10 -5 4 -8 6 -7 4 3 -7 -39 -43 -44 -38 -4 3 -13 0 -21 -7 -11
-8 -14 -8 -9 0 4 6 3 14 -3 18 -5 3 -10 -1 -10 -9 0 -10 -6 -13 -15 -10 -8 4
-12 11 -8 17 3 6 1 7 -6 3 -9 -6 -9 -11 0 -22 10 -12 10 -15 -2 -12 -7 2 -20
9 -27 15 -7 7 -18 13 -25 13 -6 0 -2 -6 9 -14 14 -11 16 -18 8 -26 -9 -9 -14
-9 -19 1 -6 8 -4 10 5 4 9 -6 11 -4 6 4 -6 9 -13 8 -29 -6 -17 -14 -19 -14 -9
-1 10 12 10 18 1 24 -7 4 -9 3 -6 -2 3 -6 -3 -16 -15 -23 -11 -7 -17 -8 -14
-3 3 5 -7 9 -24 8 -17 0 -30 -5 -30 -10 0 -6 -7 -1 -15 10 -13 16 -14 16 -9 2
3 -10 1 -18 -5 -18 -6 0 -11 4 -11 9 0 5 -7 11 -14 14 -10 4 -13 1 -10 -7 3
-7 -2 -13 -10 -13 -8 0 -13 4 -11 8 11 16 -30 19 -42 3 -12 -16 -13 -17 -13
-1 0 9 -5 17 -11 17 -5 0 -8 -3 -6 -7 6 -10 -51 -9 -61 1 -4 4 -2 7 3 6 21 -5
35 0 35 12 0 9 -3 9 -12 0 -9 -9 -15 -9 -27 1 -11 9 -13 9 -8 0 5 -8 -1 -11
-20 -9 -16 2 -32 -2 -36 -8 -5 -6 -6 -2 -3 9 5 16 1 21 -16 22 -18 2 -20 0 -8
-7 12 -8 10 -9 -7 -7 -12 2 -26 7 -30 12 -5 4 -1 5 7 0 11 -6 12 -5 4 4 -16
17 -46 21 -64 8 -8 -6 -12 -7 -8 -3 8 9 -19 35 -37 36 -5 0 -4 -4 4 -9 9 -6 5
-9 -13 -9 -14 0 -26 5 -26 10 0 5 4 7 9 4 11 -7 8 21 -4 31 -4 4 -5 3 -2 -3 4
-7 0 -14 -8 -18 -8 -3 -15 -1 -15 4 0 5 -7 7 -15 4 -8 -4 -17 1 -21 10 -3 9
-10 13 -15 10 -5 -3 -9 1 -9 8 0 9 -3 9 -10 -2 -8 -13 -10 -12 -10 3 0 20 -11
22 -29 4 -11 -10 -13 -9 -8 4 3 9 1 22 -5 30 -8 11 -9 10 -4 -3 3 -10 1 -18
-3 -18 -5 0 -11 5 -13 12 -2 6 -19 12 -36 13 -18 1 -38 8 -45 15 -9 11 -7 10
7 0 18 -14 18 -14 6 7 -11 17 -18 20 -33 11 -15 -8 -18 -7 -12 3 6 9 3 11 -8
6 -13 -5 -17 -1 -18 16 0 21 -1 21 -9 2 -5 -11 -9 -14 -9 -7 -1 7 -5 11 -10 7
-5 -3 -13 0 -17 6 -4 7 -3 9 4 5 6 -3 14 -2 17 4 4 6 3 10 -2 9 -19 -3 -32 2
-36 14 -2 6 -3 1 -1 -13 l3 -25 -11 23 c-8 15 -18 22 -30 19 -10 -3 -16 -1
-12 4 3 5 -2 9 -11 9 -10 0 -13 -5 -9 -12 5 -7 3 -8 -6 -3 -10 6 -9 11 5 22
16 11 16 13 3 13 -9 0 -18 3 -21 8 -2 4 -3 2 -1 -4 4 -17 -34 -5 -40 13 -4 8
-11 11 -18 7 -9 -5 -8 -2 1 9 13 16 12 17 -11 8 -27 -10 -38 -6 -38 13 0 6 5
4 10 -4 5 -8 10 -10 10 -4 0 6 -8 18 -17 25 -11 10 -14 10 -9 2 4 -7 3 -13 -2
-13 -5 0 -14 10 -21 23 -9 18 -11 18 -6 2 5 -19 4 -19 -9 -2 -7 9 -21 17 -30
17 -14 0 -20 11 -17 32 0 3 -11 5 -25 3 -13 -1 -27 2 -31 8 -3 6 -1 7 5 3 6
-3 13 -2 16 3 7 11 -13 9 -33 -3 -10 -6 -12 -5 -7 2 4 7 2 12 -4 12 -7 0 -9 9
-5 23 5 18 4 19 -5 7 -9 -11 -13 -12 -17 -2 -2 6 -10 9 -16 5 -6 -4 -8 0 -4
11 6 14 4 15 -16 5 -18 -9 -20 -9 -9 2 6 7 12 18 12 24 0 5 -5 3 -10 -5 -8
-13 -12 -11 -26 8 -9 13 -22 21 -29 18 -16 -6 -45 25 -45 48 0 14 -5 17 -21
13 -17 -5 -18 -3 -7 11 10 12 10 14 1 8 -8 -4 -13 -2 -13 4 0 6 -4 8 -10 5 -5
-3 -10 3 -10 14 0 16 -6 21 -25 21 -14 0 -25 5 -25 11 0 5 4 7 10 4 6 -3 7 1
4 9 -6 15 -18 20 -39 16 -5 -1 -4 4 3 11 17 18 15 34 -3 19 -13 -11 -14 -10
-9 4 4 11 -1 23 -12 32 -11 9 -14 13 -8 10 7 -3 17 1 24 9 10 12 8 14 -9 10
-11 -2 -24 1 -27 7 -4 7 -2 8 4 4 7 -4 12 -2 12 3 0 6 -6 11 -12 12 -10 0 -10
2 0 6 6 2 9 10 6 15 -4 7 -2 8 5 4 6 -4 9 -11 6 -16 -3 -5 -1 -11 4 -15 11 -6
7 27 -5 48 -5 7 0 6 11 -3 17 -14 18 -14 5 10 -12 23 -12 24 4 11 15 -12 17
-12 14 0 -2 8 -7 18 -13 22 -5 5 1 5 14 2 15 -5 21 -3 17 3 -4 7 1 9 14 7 20
-4 23 13 5 28 -6 5 -3 6 8 3 10 -3 26 3 37 14 11 11 20 16 20 12 0 -4 -5 -13
-10 -18 -7 -7 -6 -11 4 -11 8 0 15 3 14 6 0 3 0 13 1 21 1 13 2 13 11 0 8 -12
10 -12 10 -1 0 8 7 11 20 8 11 -3 23 0 27 5 3 6 1 8 -5 4 -6 -3 -14 -2 -17 4
-4 6 -1 9 7 8 7 -2 12 3 10 10 -1 8 2 11 8 7 6 -3 8 -10 5 -15 -3 -5 -1 -11 5
-15 5 -3 10 1 10 9 0 9 3 15 8 15 18 -3 33 2 28 9 -2 4 4 8 14 8 11 0 16 -6
13 -16 -3 -10 -1 -10 7 3 6 9 8 23 4 30 -5 8 -2 7 9 -2 12 -9 17 -10 17 -2 0
7 5 9 10 6 6 -3 10 0 10 7 0 10 2 10 9 -1 6 -9 11 -10 15 -2 4 6 18 11 32 11
13 0 33 9 44 20 19 19 25 18 21 -4 -1 -5 5 -4 13 3 9 7 13 17 10 22 -3 5 -2 9
3 10 4 0 18 2 31 5 16 3 21 0 17 -8 -4 -7 -1 -6 7 3 18 21 46 30 52 16 2 -7 5
-2 5 11 1 12 6 22 12 22 5 0 8 -4 4 -9 -3 -5 -1 -13 5 -16 6 -4 10 -3 9 2 -3
20 2 27 11 13 8 -13 10 -13 10 2 0 9 9 20 20 23 11 4 17 11 14 17 -4 7 -2 8 5
4 6 -4 8 -12 5 -18 -5 -7 -2 -8 6 -3 10 6 12 4 6 -10 -4 -12 3 -8 22 11 15 16
26 33 23 38 -2 5 1 6 8 2 9 -6 9 -11 0 -22 -10 -12 -9 -13 5 -8 14 5 20 16 18
35 -1 3 5 6 13 6 8 0 12 -4 9 -9 -3 -4 2 -5 10 -2 9 3 13 11 9 18 -4 7 -1 6 9
-2 17 -13 48 -7 48 11 0 7 -4 7 -12 -1 -7 -7 -17 -12 -22 -12 -6 0 -2 7 8 15
16 12 22 12 35 2 12 -9 13 -9 7 1 -4 7 -2 12 4 12 6 0 9 4 6 9 -4 5 3 7 15 4
16 -5 18 -8 7 -15 -10 -8 -10 -9 2 -5 8 2 14 11 12 19 -1 8 4 15 12 15 9 0 12
-6 8 -16 -5 -14 -4 -14 10 -1 9 8 14 18 11 23 -2 4 1 7 6 7 6 0 11 -5 11 -11
0 -8 4 -9 13 0 8 6 18 7 22 3 5 -4 5 -1 1 6 -4 7 -11 10 -16 7 -5 -3 -11 -2
-14 3 -2 4 6 8 20 8 13 0 24 -5 25 -10 0 -6 4 -2 8 9 5 11 14 20 22 20 8 1 13
7 11 14 -1 7 2 10 7 6 6 -3 9 -11 7 -18 -1 -7 -1 -9 1 -4 3 4 10 4 15 1 7 -4
8 -2 4 4 -4 7 -2 12 4 12 6 0 8 5 4 11 -4 8 0 8 15 0 17 -10 20 -9 15 4 -4 8
-1 15 5 15 6 0 11 -6 11 -12 0 -7 6 -4 12 7 15 27 30 36 43 25 13 -11 37 3 33
19 -2 8 10 15 30 17 23 3 31 1 26 -8 -4 -7 -3 -8 5 -4 9 6 9 11 -1 24 -11 13
-11 15 4 10 10 -4 19 -1 22 8 3 8 11 14 18 14 9 0 9 -3 -2 -10 -12 -7 -10 -9
8 -7 17 1 21 6 16 22 -6 20 -6 20 10 0 9 -11 16 -15 15 -10 -4 29 1 39 13 27
18 -18 30 -14 19 6 -10 20 -8 21 50 24 20 2 25 6 21 18 -5 13 -3 13 10 2 13
-10 18 -10 24 -1 4 8 3 9 -4 5 -7 -4 -12 -3 -12 2 0 14 28 23 32 11 2 -6 12 0
23 13 15 17 16 19 3 9 -12 -9 -18 -10 -18 -2 0 6 5 12 10 12 6 1 16 2 23 3 6
1 11 8 9 15 -1 7 2 10 8 6 6 -3 8 -11 4 -16 -3 -6 3 -5 14 2 17 11 19 16 9 28
-10 12 -9 13 10 3 16 -9 24 -9 29 0 5 7 3 8 -6 3 -9 -5 -11 -4 -6 3 4 7 16 12
26 12 10 0 22 5 26 12 5 7 3 8 -7 3 -12 -8 -12 -6 0 8 14 18 26 23 17 8 -3 -5
1 -12 10 -15 9 -3 12 -2 9 5 -4 5 4 19 17 31 12 11 22 24 20 30 -1 5 8 3 20
-3 22 -12 22 -11 8 6 -9 11 -10 16 -2 11 7 -4 15 -1 18 9 5 13 9 13 22 3 12
-10 14 -10 8 0 -4 7 -2 12 4 12 6 0 8 5 4 13 -6 9 -4 9 8 -1 14 -11 16 -10 11
7 -3 13 -1 21 6 21 7 0 9 -5 5 -12 -5 -9 -2 -9 9 1 9 7 17 19 17 25 0 7 5 17
12 24 9 9 16 8 32 -6 14 -12 17 -13 11 -2 -15 24 -14 38 2 36 9 0 18 5 21 13
3 9 0 11 -8 6 -8 -5 -11 -4 -6 3 3 6 19 9 34 7 15 -2 21 -2 15 1 -19 8 -16 27
3 20 14 -5 15 -4 4 9 -11 13 -10 15 1 10 8 -3 23 2 34 11 11 8 13 13 5 9 -13
-6 -13 -5 0 7 21 18 55 71 52 81 -1 5 2 5 8 2 8 -5 5 -14 -7 -28 -14 -17 -11
-16 10 3 27 23 27 25 10 38 -17 14 -17 14 4 9 13 -3 24 1 27 10 4 9 1 12 -7 8
-6 -4 -4 0 5 8 10 8 15 17 11 20 -3 4 -1 7 6 7 8 0 11 6 7 16 -5 14 -4 15 9 4
11 -9 15 -9 15 -1 0 7 5 9 12 5 7 -4 8 -3 4 5 -4 6 -11 9 -16 6 -4 -3 -3 6 3
19 7 13 15 22 19 20 5 -3 9 2 9 10 3 30 4 34 13 43 6 5 6 2 1 -7 -8 -13 -6
-13 7 -2 9 8 14 20 11 29 -4 9 1 19 11 25 11 6 15 16 10 30 -4 13 -2 18 4 14
6 -4 8 3 4 16 -5 21 -4 22 14 8 12 -9 15 -9 7 -1 -6 7 -9 21 -6 30 4 13 3 13
-5 2 -8 -11 -10 -8 -9 12 2 18 5 23 14 15 9 -7 10 -3 3 20 -7 26 -6 30 8 24
15 -5 15 -4 3 12 -12 14 -12 19 -2 25 10 7 10 9 -1 13 -16 6 -15 93 1 112 8 9
7 13 -4 13 -8 0 -11 -5 -8 -10 3 -6 1 -7 -6 -3 -6 4 -8 13 -4 19 11 18 12 38
2 31 -5 -3 -6 -10 -3 -16 4 -6 2 -8 -4 -5 -5 4 -8 17 -4 29 3 14 1 19 -6 14
-6 -3 -14 -1 -18 5 -4 7 -3 9 3 6 6 -4 14 0 17 9 3 8 2 12 -4 9 -6 -3 -10 5
-10 18 0 14 -6 30 -14 37 -8 6 -12 19 -9 28 4 10 -3 6 -15 -8 -12 -14 -21 -20
-22 -13 0 6 6 13 13 16 8 3 6 10 -8 22 -11 9 -15 14 -9 11 6 -3 11 1 11 8 0 8
-6 12 -13 9 -6 -2 -15 0 -18 6 -4 6 -12 9 -19 7 -7 -1 -9 -1 -4 1 4 3 7 9 7
14 0 6 -4 7 -10 4 -5 -3 -10 1 -10 10 0 9 -4 13 -10 10 -5 -3 -10 1 -10 9 0
14 -12 20 -32 17 -5 0 -8 6 -8 14 0 17 -11 19 -28 5 -9 -7 -9 -7 -2 2 13 16
13 31 0 23 -17 -10 -52 5 -46 21 3 7 0 16 -6 20 -7 4 -8 3 -4 -4 12 -20 -3
-13 -31 12 -15 14 -35 23 -49 21 -13 -1 -21 2 -18 6 5 8 -18 14 -39 10 -5 -1
-6 3 -2 9 6 10 -6 14 -35 11 -9 -1 -26 8 -39 20 -16 16 -30 20 -51 15 -16 -3
-32 -1 -35 4 -3 5 0 7 8 4 8 -3 17 -1 21 4 6 11 -24 9 -43 -3 -9 -5 -12 -4 -8
1 3 6 -3 16 -15 23 -11 7 -17 8 -13 2 3 -6 1 -11 -4 -11 -6 0 -11 6 -11 13 0
9 -2 9 -9 -1 -7 -11 -9 -11 -14 1 -4 10 -16 13 -37 11 -25 -3 -31 -1 -27 11 5
11 1 12 -16 6 -15 -6 -26 -4 -35 8 -12 14 -13 14 -7 -3 6 -20 6 -20 -16 0 -12
10 -19 13 -14 5 5 -9 3 -12 -6 -9 -8 3 -13 10 -12 15 1 5 -9 9 -22 9 -13 0
-21 -5 -19 -10 3 -6 -2 -2 -12 9 -16 20 -16 20 -11 -3 3 -12 1 -20 -4 -16 -5
3 -9 13 -9 22 0 15 -2 15 -10 2 -8 -13 -10 -12 -10 4 0 16 -2 16 -21 -5 -11
-13 -18 -19 -15 -13 8 15 -16 35 -31 26 -18 -11 -87 -5 -91 7 -2 6 -8 11 -13
11 -6 0 -7 -5 -3 -11 4 -7 -1 -7 -16 1 -15 8 -20 8 -16 1 4 -6 2 -11 -3 -11
-6 0 -11 5 -11 10 0 6 -5 10 -11 10 -5 0 -7 -5 -3 -12 4 -7 3 -8 -5 -4 -6 4
-9 11 -6 16 3 5 0 12 -6 16 -8 4 -9 3 -5 -4 4 -7 3 -12 -3 -12 -5 0 -11 5 -13
12 -3 7 -7 5 -11 -6 -4 -9 -3 -15 2 -11 5 3 12 2 15 -3 2 -4 -6 -8 -19 -8 -13
0 -21 4 -19 8 3 4 2 8 -3 9 -4 0 -16 2 -26 4 -9 2 -15 0 -12 -5 3 -4 -2 -11
-10 -14 -9 -3 -18 0 -21 8 -6 15 -55 9 -66 -8 -5 -8 -8 -7 -8 1 0 19 -37 36
-46 21 -4 -6 -3 -8 3 -5 6 4 17 -1 24 -11 13 -15 12 -16 -3 -3 -15 11 -18 11
-18 0 -1 -8 -7 -3 -15 11 l-14 25 -1 -25 -1 -25 -15 25 c-12 21 -14 22 -12 5
2 -14 -2 -19 -12 -16 -49 13 -63 13 -71 0 -7 -11 -9 -11 -9 3 0 9 6 19 13 21
9 4 9 6 -1 6 -7 1 -17 -9 -22 -21 -6 -17 -9 -18 -9 -6 -1 9 -6 20 -13 24 -7 5
-8 3 -4 -5 10 -15 -25 -11 -36 4 -5 6 -8 5 -8 -3 0 -7 -4 -11 -9 -7 -5 3 -13
0 -17 -6 -5 -8 -3 -9 7 -4 8 5 10 4 6 0 -12 -14 -39 -15 -34 -1 3 7 -1 13 -8
13 -7 0 -11 -6 -8 -13 2 -6 0 -15 -5 -18 -5 -3 -9 2 -8 11 0 9 -5 18 -13 21
-9 3 -11 0 -6 -9 5 -8 0 -6 -11 3 -16 14 -20 28 -17 60 2 26 -2 45 -9 50 -9 5
-8 8 6 8 14 0 16 3 7 13 -6 8 -8 17 -4 21 4 4 1 11 -7 16 -12 8 -9 10 10 10
15 0 20 3 13 8 -20 13 -24 60 -5 67 15 6 14 9 -7 26 -13 10 -18 19 -12 19 6 0
11 7 11 15 0 8 5 15 12 15 6 0 4 6 -6 13 -17 12 -17 14 -1 27 21 18 47 22 38
7 -3 -7 -3 -9 2 -5 4 4 15 2 23 -5 10 -8 9 -2 -4 18 -13 19 -14 26 -5 20 20
-12 82 -15 75 -4 -3 5 2 6 10 3 9 -3 16 -10 16 -15 0 -5 5 -9 11 -9 5 0 7 5 4
10 -3 6 -1 10 4 10 6 0 12 -8 12 -17 1 -17 2 -17 6 0 2 9 9 17 15 17 5 0 7 -8
4 -17 -5 -15 -4 -15 9 1 10 13 15 15 15 6 0 -9 5 -7 15 6 13 16 14 16 9 2 -3
-10 -1 -18 5 -18 6 0 11 7 11 15 0 8 5 15 11 15 5 0 7 -5 3 -11 -4 -7 -1 -10
6 -7 7 2 17 15 22 27 7 20 6 22 -6 12 -11 -9 -16 -9 -22 0 -4 8 -3 9 4 5 7 -4
12 -4 13 1 0 4 2 16 4 25 2 9 -9 27 -23 40 l-27 23 20 -25 c11 -14 16 -22 11
-18 -5 4 -16 2 -25 -5 -14 -10 -14 -10 -3 5 8 10 9 19 3 22 -5 4 -8 16 -6 27
4 18 2 19 -12 7 -15 -12 -15 -11 -4 11 11 19 11 22 0 16 -9 -6 -11 -3 -6 9 5
12 -1 20 -18 28 -19 9 -22 14 -14 25 11 12 2 18 -23 14 -8 -1 -4 26 4 35 8 8
-13 44 -26 44 -5 0 -1 -8 8 -19 15 -16 15 -19 2 -24 -10 -4 -13 -1 -10 7 3 8
0 17 -6 21 -8 5 -7 12 4 24 15 16 14 18 -6 17 -17 -1 -22 4 -20 18 2 10 -1 15
-7 11 -6 -3 -9 0 -5 8 3 9 -3 16 -14 19 -15 4 -18 12 -15 30 3 16 -2 29 -14
39 -16 13 -17 12 -5 -3 10 -12 10 -18 1 -24 -7 -4 -9 -3 -5 4 3 6 2 14 -4 17
-8 5 -8 11 0 20 8 9 7 17 -4 28 -8 8 -12 18 -8 22 4 4 -4 4 -18 1 -20 -6 -22
-5 -10 4 12 9 12 13 2 17 -10 4 -10 8 0 21 8 10 9 13 1 9 -6 -4 -18 1 -26 13
-7 11 -17 17 -22 12 -5 -4 -5 -1 -1 5 9 15 -12 56 -24 48 -5 -3 -7 3 -5 14 2
10 -3 30 -10 44 -7 14 -10 29 -7 33 4 4 1 4 -5 0 -9 -5 -13 0 -13 14 0 12 -3
19 -7 17 -5 -3 -15 2 -23 11 -13 14 -12 15 3 9 9 -3 19 -1 23 5 4 7 3 8 -4 4
-7 -4 -12 -2 -12 4 0 6 -4 9 -9 6 -5 -3 -11 1 -14 9 -4 10 -1 12 11 9 13 -5
14 -4 4 4 -8 5 -13 13 -12 18 1 5 -4 10 -12 12 -9 2 -8 0 2 -8 10 -8 11 -10 2
-8 -8 2 -13 7 -12 12 1 5 -4 13 -12 18 -10 8 -9 9 4 4 12 -3 15 -1 11 9 -3 8
-10 12 -17 8 -6 -4 -4 2 4 12 8 10 10 16 4 12 -6 -3 -20 1 -30 9 -18 15 -18
15 -1 10 12 -4 17 -2 14 6 -2 7 -10 12 -17 10 -10 -2 -11 0 -2 11 14 16 6 28
-14 20 -8 -3 -11 -10 -7 -16 4 -6 1 -7 -6 -3 -9 6 -8 12 4 26 14 16 14 18 -2
31 -16 13 -17 12 -4 -3 9 -12 10 -18 2 -18 -6 0 -11 5 -11 10 0 6 -8 10 -17
11 -16 0 -15 2 2 10 17 7 182 4 270 -6z m-441 -203 c3 -5 -1 -9 -9 -9 -8 0
-12 4 -9 9 3 4 7 8 9 8 2 0 6 -4 9 -8z m-80 -188 c3 -8 2 -12 -4 -9 -6 3 -10
10 -10 16 0 14 7 11 14 -7z m-94 -658 c0 -3 -4 -8 -10 -11 -5 -3 -10 -1 -10 4
0 6 5 11 10 11 6 0 10 -2 10 -4z m47 -58 c-3 -8 -6 -5 -6 6 -1 11 2 17 5 13 3
-3 4 -12 1 -19z m-7 -48 c0 -5 -4 -10 -10 -10 -5 0 -10 5 -10 10 0 6 5 10 10
10 6 0 10 -4 10 -10z m-16 -66 c3 -8 2 -12 -4 -9 -6 3 -10 10 -10 16 0 14 7
11 14 -7z m-227 -329 c0 -8 -4 -12 -9 -9 -5 3 -6 10 -3 15 9 13 12 11 12 -6z
m-424 -70 c-3 -9 -8 -14 -10 -11 -3 3 -2 9 2 15 9 16 15 13 8 -4z m-36 -11
c-11 -11 -57 -13 -57 -2 0 5 9 7 19 3 11 -3 22 -1 26 5 4 6 10 9 13 6 3 -3 2
-9 -1 -12z m2688 -24 c3 -5 1 -10 -4 -10 -6 0 -11 5 -11 10 0 6 2 10 4 10 3 0
8 -4 11 -10z m-3065 -64 c0 -2 -7 -7 -16 -10 -8 -3 -12 -2 -9 4 6 10 25 14 25
6z m2168 -124 c-11 -14 -8 -13 16 2 24 15 28 16 23 3 -4 -11 -2 -14 8 -10 8 3
13 9 10 13 -3 5 -1 11 5 15 9 5 14 -7 11 -27 0 -4 6 -5 13 -2 8 3 13 11 10 18
-3 7 2 13 10 13 9 0 12 -6 8 -16 -5 -14 -4 -14 13 -1 14 11 17 12 11 1 -6 -9
-5 -12 5 -9 8 3 13 11 11 17 -1 8 2 9 10 5 18 -11 48 -12 54 -2 3 5 17 2 30
-6 13 -9 32 -16 42 -16 10 0 23 -5 30 -12 9 -9 13 -7 18 6 6 15 7 15 21 -1 8
-10 11 -12 8 -5 -5 10 -2 13 11 10 11 -2 18 -10 16 -17 -1 -7 2 -10 8 -6 6 3
8 11 5 16 -4 5 -1 9 4 9 6 0 12 -8 12 -17 1 -17 2 -17 6 0 2 9 9 17 14 17 6 0
7 -4 4 -10 -9 -14 9 -12 23 2 10 10 14 8 19 -10 3 -13 11 -21 17 -19 6 3 20
-3 30 -12 11 -9 16 -10 12 -3 -4 7 -1 12 8 12 9 0 16 -4 16 -10 0 -6 6 -9 13
-8 6 2 11 -2 10 -8 -1 -7 10 -11 27 -10 20 1 30 -3 30 -12 0 -7 4 -11 9 -7 5
3 16 -2 24 -10 12 -11 17 -12 20 -2 5 10 11 -15 9 -34 -1 -10 32 -7 48 5 10 7
9 3 -2 -10 -10 -11 -18 -25 -18 -30 0 -5 4 -3 9 5 13 20 39 7 43 -21 2 -13 9
-22 17 -20 12 3 12 0 0 -14 -13 -16 -12 -16 9 -5 13 7 26 10 30 7 3 -3 0 -6
-6 -6 -7 0 -12 -5 -12 -11 0 -16 26 -39 35 -31 5 4 5 1 1 -6 -6 -9 -11 -10
-20 -3 -9 8 -13 7 -13 -4 0 -7 3 -14 6 -13 18 2 28 -3 28 -14 8 -119 11 -147
18 -158 5 -8 4 -11 -2 -7 -6 4 -14 0 -17 -9 -3 -8 -2 -12 4 -9 6 3 10 1 10 -4
0 -6 -6 -11 -12 -12 -10 0 -10 -2 0 -6 19 -7 14 -23 -5 -16 -15 6 -16 4 -5 -9
9 -11 10 -18 2 -23 -6 -3 -8 -10 -5 -15 3 -5 -3 -7 -13 -5 -11 2 -19 -3 -19
-10 0 -7 7 -11 16 -8 13 4 13 2 -1 -10 -10 -8 -14 -18 -10 -23 4 -4 -1 -2 -11
5 -15 12 -17 12 -11 -4 5 -12 4 -16 -4 -11 -6 3 -13 2 -16 -3 -4 -5 -1 -13 5
-17 8 -5 9 -3 4 6 -6 9 -4 11 5 5 10 -6 10 -11 -3 -20 -9 -7 -13 -16 -9 -21 4
-4 -2 -2 -12 6 -18 14 -18 13 -11 -9 5 -16 4 -21 -4 -17 -6 4 -11 2 -11 -4 0
-6 -4 -9 -9 -5 -5 3 -11 -5 -13 -17 -2 -13 -10 -23 -18 -23 -9 0 -15 -9 -14
-22 1 -20 -1 -21 -20 -11 -18 10 -19 9 -9 -4 10 -12 10 -15 -2 -15 -8 0 -15 5
-15 10 0 6 -3 7 -6 4 -4 -4 -1 -13 6 -22 11 -13 10 -14 -6 -9 -10 4 -16 4 -12
0 11 -13 -52 -75 -70 -69 -10 4 -13 2 -8 -5 4 -7 2 -12 -3 -12 -6 0 -11 5 -11
12 0 6 -3 8 -6 5 -4 -4 -1 -14 7 -23 13 -16 12 -17 -9 -12 -17 5 -22 2 -20 -9
2 -9 -3 -17 -10 -19 -7 -1 -8 0 -2 3 5 2 7 9 4 15 -3 5 -15 -5 -26 -22 -18
-31 -20 -31 -34 -14 -13 18 -13 17 -5 -6 8 -23 6 -26 -15 -28 -13 -1 -24 3
-24 10 0 6 -3 8 -6 5 -4 -4 -1 -15 7 -24 7 -10 9 -15 5 -11 -5 4 -15 0 -23
-10 -14 -16 -14 -16 -9 1 3 11 2 16 -4 12 -6 -3 -10 -12 -10 -20 0 -9 -9 -12
-27 -10 -16 2 -22 2 -15 -1 21 -10 13 -21 -13 -19 -14 2 -23 -1 -19 -6 3 -5
11 -6 17 -2 7 4 7 1 -1 -9 -8 -9 -19 -15 -27 -12 -7 3 -24 -6 -38 -20 -15 -14
-36 -26 -49 -26 -21 -1 -22 -2 -5 -14 16 -12 16 -14 2 -20 -9 -3 -13 -2 -10 4
3 6 0 10 -9 10 -8 0 -16 3 -19 8 -2 4 -2 1 -1 -5 3 -12 -16 -18 -39 -14 -4 1
-3 -8 3 -19 13 -24 7 -26 -16 -3 -16 16 -16 16 -10 -3 4 -14 2 -21 -8 -21 -9
0 -13 4 -10 9 3 4 0 8 -5 8 -6 0 -11 -9 -11 -20 0 -21 -19 -28 -21 -7 0 9 -2
9 -5 0 -3 -7 -11 -10 -19 -7 -7 3 -16 1 -20 -5 -3 -6 0 -9 8 -5 8 3 17 1 21
-4 3 -5 0 -9 -7 -9 -59 -4 -77 -9 -73 -20 3 -7 1 -13 -5 -13 -6 0 -7 -5 -3
-12 4 -7 3 -8 -5 -4 -6 4 -9 13 -5 19 3 7 -1 4 -9 -5 -9 -12 -17 -14 -24 -7
-8 8 -13 7 -18 -2 -5 -8 -4 -10 3 -5 7 4 12 3 12 -3 0 -5 -10 -11 -22 -13 -17
-2 -22 -9 -20 -23 l4 -20 -16 20 c-8 11 -16 15 -16 8 0 -6 -11 -10 -24 -9 -17
2 -23 -1 -19 -10 3 -8 10 -11 16 -7 6 3 7 1 3 -5 -3 -6 -15 -9 -26 -7 -12 2
-29 -5 -41 -18 -15 -17 -19 -18 -14 -4 4 10 2 17 -4 17 -6 0 -11 -7 -11 -16 0
-13 -3 -14 -14 -5 -10 9 -16 9 -21 1 -4 -6 -13 -9 -20 -6 -16 6 -27 -3 -19
-16 3 -5 17 -2 30 7 13 8 24 11 24 6 0 -10 -39 -27 -52 -23 -5 1 -8 -3 -8 -8
0 -6 -5 -10 -11 -10 -5 0 -8 4 -5 8 3 5 -1 9 -9 9 -8 0 -11 -5 -8 -10 4 -7 -1
-8 -12 -3 -15 5 -16 4 -6 -8 9 -11 9 -16 0 -22 -8 -4 -9 -3 -5 4 11 19 -5 14
-21 -5 -8 -10 -12 -12 -8 -5 3 6 1 12 -4 12 -6 0 -11 -3 -11 -8 0 -4 -9 -13
-21 -20 -12 -8 -18 -9 -15 -4 3 6 -1 13 -10 16 -10 4 -13 2 -8 -6 5 -8 2 -9
-10 -5 -9 4 -15 3 -12 -2 7 -10 -24 -38 -42 -37 -7 1 -17 8 -23 16 -8 12 -9
11 -5 -5 5 -17 2 -20 -21 -19 -28 1 -54 -15 -46 -28 2 -4 -3 -5 -11 -2 -9 4
-16 1 -16 -6 0 -10 -3 -10 -14 -1 -11 9 -18 8 -30 -4 -9 -9 -20 -13 -26 -10
-6 4 -9 1 -8 -7 2 -8 -4 -12 -16 -10 -10 2 -15 -1 -11 -7 3 -6 0 -9 -8 -5 -8
3 -18 1 -22 -5 -3 -6 -11 -11 -17 -11 -6 0 -7 5 -2 13 5 7 2 5 -7 -5 -16 -17
-18 -17 -38 1 l-21 18 22 17 c13 9 16 14 8 11 -8 -4 -4 3 10 15 14 12 20 19
14 16 -18 -9 -23 18 -8 39 9 12 14 14 14 5 0 -7 2 -11 5 -8 10 10 -7 38 -19
31 -6 -4 -5 1 3 10 14 18 26 23 16 8 -3 -5 0 -13 7 -17 7 -4 10 -3 5 1 -4 5 0
20 10 34 13 21 13 24 1 13 -13 -10 -15 -8 -14 18 1 27 2 28 14 13 15 -21 16
-9 0 20 -11 21 -10 21 8 7 10 -8 16 -11 12 -6 -4 4 -3 19 3 33 6 16 5 22 -1
18 -5 -3 -7 0 -4 9 3 8 13 12 22 9 14 -4 15 -3 2 6 -8 5 -11 13 -8 17 4 4 3
15 -3 26 -9 17 -8 18 8 10 16 -9 18 -6 17 31 -2 51 4 69 20 60 6 -4 5 1 -3 11
-8 9 -10 16 -5 15 19 -3 34 1 34 12 0 5 -5 7 -11 3 -8 -4 -9 1 -4 16 5 17 4
21 -5 15 -9 -5 -11 -4 -6 4 6 9 11 9 21 1 10 -8 13 -6 11 7 0 10 5 17 12 15 8
-1 11 2 7 8 -5 8 -11 7 -21 -1 -17 -14 -17 -9 -4 25 7 19 6 26 -3 27 -9 0 -9
2 1 6 6 2 12 11 12 18 0 8 5 17 12 21 6 4 8 3 5 -3 -8 -13 -19 -79 -12 -71 3
3 8 18 11 34 3 15 7 31 10 35 2 4 -2 14 -11 22 -13 13 -13 16 0 21 8 3 15 13
15 21 0 9 -5 13 -11 9 -8 -4 -8 0 0 15 7 11 14 21 17 21 3 0 2 -4 -1 -10 -3
-6 1 -7 10 -4 14 6 14 8 -2 20 -17 13 -17 13 0 14 9 0 17 5 17 10 0 6 -8 11
-17 11 -16 1 -17 2 -1 6 11 3 15 10 11 20 -5 12 -3 14 7 8 9 -5 11 -4 6 4 -4
6 -2 19 6 28 9 12 9 15 1 9 -9 -5 -13 2 -13 23 0 17 5 31 12 31 6 0 8 3 5 7
-4 3 -1 13 6 21 9 13 9 14 0 8 -7 -4 -13 -3 -13 3 0 5 5 11 11 13 9 3 8 11 -1
28 -12 23 -12 24 4 11 15 -12 17 -12 14 0 -2 8 -7 17 -12 21 -6 4 -5 12 3 21
9 12 9 16 -1 21 -7 3 -3 4 10 2 19 -4 21 -2 11 10 -6 7 -16 11 -23 8 -6 -3 -2
3 10 13 11 10 20 25 19 33 0 8 6 18 15 22 12 5 12 7 -2 7 -10 1 -18 6 -18 12
0 5 5 7 12 3 6 -4 8 -3 4 4 -3 5 0 13 6 16 9 3 8 5 -2 3 -8 -1 -16 3 -17 8 -1
6 5 9 13 9 14 -2 14 0 0 15 -16 18 -11 34 14 44 12 4 11 6 -2 6 -21 1 -24 21
-4 21 8 0 18 5 22 12 5 8 2 9 -9 5 -23 -9 -21 1 5 22 17 14 18 18 5 18 -9 0
-13 -5 -10 -10 4 -6 1 -7 -6 -3 -9 6 -8 13 5 27 9 11 14 22 11 26 -4 3 -1 13
6 21 8 10 8 13 1 9 -7 -4 -14 0 -17 8 -4 10 -1 12 10 8 11 -4 14 -2 9 5 -4 7
-2 12 6 12 10 0 10 2 0 9 -8 4 -12 17 -11 27 2 11 0 25 -5 33 -6 10 -5 12 2 7
7 -4 12 -2 12 3 0 6 4 11 10 11 5 0 7 -8 4 -17 -5 -17 -5 -17 6 0 6 10 16 14
23 10 7 -4 5 2 -3 12 -14 17 -14 18 8 6 22 -12 28 -6 23 22 -1 5 3 6 9 2 5 -3
10 0 10 7 0 8 5 6 11 -4 13 -23 33 -23 25 -1 -6 14 -3 14 15 -3 12 -10 19 -14
16 -7 -4 6 -3 14 2 17 5 3 12 -1 15 -10 8 -20 29 -7 22 15 -4 9 2 5 12 -8 12
-15 22 -20 26 -13 3 6 14 11 24 11 48 3 59 6 55 18 -3 7 0 13 6 13 6 0 11 -6
11 -12 0 -9 4 -8 10 2 6 10 10 11 10 3 0 -7 5 -13 11 -13 5 0 7 6 3 13 -5 7 0
6 11 -3 17 -13 18 -13 13 0 -4 12 5 15 48 16 29 0 50 -4 48 -8 -3 -5 -10 -5
-16 -2 -7 5 -8 2 -3 -6 6 -10 12 -8 27 9 13 17 18 19 18 8 0 -9 5 -19 12 -23
7 -4 8 -3 4 4 -4 7 -2 12 4 12 6 0 9 4 6 9 -3 4 6 6 21 3 19 -4 24 -2 18 8 -5
9 -4 11 4 6 9 -6 9 -12 -1 -24z m323 1 c13 -16 12 -17 -3 -4 -17 13 -22 21
-14 21 2 0 10 -8 17 -17z m-631 -16 c0 5 7 10 15 10 20 0 19 -4 -4 -16 -14 -8
-22 -7 -32 7 -13 15 -12 16 4 3 9 -7 17 -9 17 -4z m-30 -11 c0 -3 -4 -8 -10
-11 -5 -3 -10 -1 -10 4 0 6 5 11 10 11 6 0 10 -2 10 -4z m965 -36 c3 -5 1 -10
-4 -10 -6 0 -11 5 -11 10 0 6 2 10 4 10 3 0 8 -4 11 -10z m571 -26 c1 -9 0
-13 -4 -10 -3 4 -7 14 -8 22 -1 9 0 13 4 10 3 -4 7 -14 8 -22z m-462 -40 c3
-8 2 -12 -4 -9 -6 3 -10 10 -10 16 0 14 7 11 14 -7z m-1329 -24 c3 -5 1 -10
-4 -10 -6 0 -11 5 -11 10 0 6 2 10 4 10 3 0 8 -4 11 -10z m-838 -142 c-3 -8
-6 -5 -6 6 -1 11 2 17 5 13 3 -3 4 -12 1 -19z m2653 -239 c0 -5 -4 -9 -8 -9
-5 0 -9 7 -9 15 0 8 4 12 9 9 4 -3 8 -9 8 -15z m-3456 -45 c3 -8 2 -12 -4 -9
-6 3 -10 10 -10 16 0 14 7 11 14 -7z m3430 0 c3 -8 2 -12 -4 -9 -6 3 -10 10
-10 16 0 14 7 11 14 -7z m-194 -278 c0 -2 -7 -7 -16 -10 -8 -3 -12 -2 -9 4 6
10 25 14 25 6z m-2825 -336 c3 -6 -1 -7 -9 -4 -18 7 -21 14 -7 14 6 0 13 -4
16 -10z m-79 -99 c0 -11 -5 -17 -13 -14 -10 4 -11 9 -2 19 15 18 15 18 15 -5z
m-99 -146 c0 -8 -4 -12 -9 -9 -5 3 -6 10 -3 15 9 13 12 11 12 -6z m1328 -155
c3 -5 1 -10 -4 -10 -6 0 -11 5 -11 10 0 6 2 10 4 10 3 0 8 -4 11 -10z m-78
-25 c0 -8 -4 -12 -9 -9 -5 3 -6 10 -3 15 9 13 12 11 12 -6z m83 -159 c0 -2 -7
-7 -16 -10 -8 -3 -12 -2 -9 4 6 10 25 14 25 6z m-1729 -223 c10 -11 10 -14 2
-9 -7 4 -13 2 -13 -3 0 -6 -5 -11 -11 -11 -8 0 -9 4 0 13 6 8 8 17 4 20 -3 4
-4 7 -1 7 3 0 12 -8 19 -17z m1664 -463 c3 -5 1 -10 -4 -10 -6 0 -11 5 -11 10
0 6 2 10 4 10 3 0 8 -4 11 -10z m-2415 -389 c0 -5 -9 -12 -19 -16 -13 -4 -18
-12 -15 -23 5 -14 4 -15 -5 -2 -8 12 -5 19 12 32 26 21 27 21 27 9z m3870 5
c0 -2 -7 -6 -15 -10 -8 -3 -15 -1 -15 4 0 6 7 10 15 10 8 0 15 -2 15 -4z
m-410 -40 c0 -3 -4 -8 -10 -11 -5 -3 -10 -1 -10 4 0 6 5 11 10 11 6 0 10 -2
10 -4z m-3597 -101 c-3 -9 -8 -14 -10 -11 -3 3 -2 9 2 15 9 16 15 13 8 -4z
m3878 -38 c-10 -9 -11 -8 -5 6 3 10 9 15 12 12 3 -3 0 -11 -7 -18z m-3946 -27
c3 -5 1 -10 -4 -10 -6 0 -11 5 -11 10 0 6 2 10 4 10 3 0 8 -4 11 -10z m-178
-168 c0 -10 -6 -19 -13 -19 -9 0 -9 5 -1 19 7 10 13 18 14 18 1 0 1 -8 0 -18z
m-75 -59 c-6 -3 -10 -8 -8 -11 2 -4 -2 -13 -10 -20 -19 -17 -18 -2 2 26 9 13
19 20 23 16 3 -4 0 -9 -7 -11z m3125 -215 c-3 -8 -6 -5 -6 6 -1 11 2 17 5 13
3 -3 4 -12 1 -19z m113 -49 c0 -6 -4 -7 -10 -4 -5 3 -10 11 -10 16 0 6 5 7 10
4 6 -3 10 -11 10 -16z m-2825 -48 c3 -5 2 -12 -3 -15 -5 -3 -9 1 -9 9 0 17 3
19 12 6z m642 -4 c0 -8 -6 -14 -14 -14 -9 0 -10 4 -2 14 6 7 12 13 14 13 1 0
2 -6 2 -13z m2404 -10 c-10 -9 -11 -8 -5 6 3 10 9 15 12 12 3 -3 0 -11 -7 -18z
m76 10 c0 -8 -6 -14 -14 -14 -9 0 -10 4 -2 14 6 7 12 13 14 13 1 0 2 -6 2 -13z
m-3459 -22 c-3 -3 -9 2 -12 12 -6 14 -5 15 5 6 7 -7 10 -15 7 -18z m497 7 c-3
-3 -11 0 -18 7 -9 10 -8 11 6 5 10 -3 15 -9 12 -12z"/>
<path d="M3475 6900 c-3 -5 -1 -10 4 -10 6 0 11 5 11 10 0 6 -2 10 -4 10 -3 0
-8 -4 -11 -10z"/>
<path d="M3370 6701 c0 -6 4 -13 10 -16 6 -3 7 1 4 9 -7 18 -14 21 -14 7z"/>
<path d="M3223 6425 c0 -8 4 -12 9 -9 5 3 6 10 3 15 -9 13 -12 11 -12 -6z"/>
<path d="M2986 6001 c-4 -5 3 -7 14 -4 23 6 26 13 6 13 -8 0 -17 -4 -20 -9z"/>
<path d="M2993 5867 c-3 -6 -1 -7 5 -3 5 3 12 1 14 -6 3 -8 6 -7 10 3 7 17
-19 22 -29 6z"/>
<path d="M3150 5419 c0 -5 5 -7 10 -4 6 3 10 8 10 11 0 2 -4 4 -10 4 -5 0 -10
-5 -10 -11z"/>
<path d="M2935 5400 c-3 -5 -1 -10 4 -10 6 0 11 5 11 10 0 6 -2 10 -4 10 -3 0
-8 -4 -11 -10z"/>
<path d="M2716 5352 c-3 -5 1 -9 9 -9 8 0 12 4 9 9 -3 4 -7 8 -9 8 -2 0 -6 -4
-9 -8z"/>
<path d="M2915 4779 c-4 -6 -5 -12 -2 -15 2 -3 7 2 10 11 7 17 1 20 -8 4z"/>
<path d="M2456 4632 c-3 -5 1 -9 9 -9 8 0 12 4 9 9 -3 4 -7 8 -9 8 -2 0 -6 -4
-9 -8z"/>
<path d="M2883 4615 c-7 -8 -9 -16 -5 -19 4 -3 13 4 20 15 14 22 3 25 -15 4z"/>
<path d="M2180 4525 c-11 -13 -10 -14 4 -9 9 3 16 10 16 15 0 13 -6 11 -20 -6z"/>
<path d="M2795 4410 c-4 -6 -11 -8 -16 -5 -16 10 -10 -2 9 -16 9 -7 14 -9 10
-5 -4 5 -3 15 3 23 6 7 9 13 6 13 -3 0 -9 -5 -12 -10z"/>
<path d="M2712 4281 c2 -7 7 -12 11 -12 12 1 9 15 -3 20 -7 2 -11 -2 -8 -8z"/>
<path d="M2571 4016 c-7 -8 -8 -17 -3 -20 6 -3 15 1 21 8 7 8 8 17 3 20 -6 3
-15 -1 -21 -8z"/>
<path d="M2333 3643 c4 -3 1 -13 -6 -22 -11 -14 -10 -14 5 -2 16 12 16 31 1
31 -4 0 -3 -3 0 -7z"/>
<path d="M1890 3009 c0 -5 5 -7 10 -4 6 3 10 8 10 11 0 2 -4 4 -10 4 -5 0 -10
-5 -10 -11z"/>
<path d="M1469 2513 c-13 -16 -12 -17 4 -4 9 7 17 15 17 17 0 8 -8 3 -21 -13z"/>
<path d="M1401 2453 c-7 -8 -11 -16 -8 -19 2 -2 10 2 17 11 17 20 9 27 -9 8z"/>
<path d="M598 1683 c7 -3 16 -2 19 1 4 3 -2 6 -13 5 -11 0 -14 -3 -6 -6z"/>
<path d="M3810 6553 c26 -37 36 -43 21 -14 -6 10 -7 22 -3 27 4 5 3 6 -2 2 -5
-4 -16 -2 -24 5 -9 6 -5 -3 8 -20z"/>
<path d="M3940 6310 c-12 -7 -10 -9 7 -7 12 0 19 5 17 9 -6 10 -6 10 -24 -2z"/>
<path d="M4027 6149 c7 -7 15 -10 18 -7 3 3 -2 9 -12 12 -14 6 -15 5 -6 -5z"/>
<path d="M3948 5868 c5 -5 16 -8 23 -6 8 3 3 7 -10 11 -17 4 -21 3 -13 -5z"/>
<path d="M3840 5855 c-7 -9 -8 -15 -2 -15 5 0 12 7 16 15 3 8 4 15 2 15 -2 0
-9 -7 -16 -15z"/>
<path d="M3838 5513 c7 -3 16 -2 19 1 4 3 -2 6 -13 5 -11 0 -14 -3 -6 -6z"/>
<path d="M4297 5499 c4 -13 8 -18 11 -10 2 7 -1 18 -6 23 -8 8 -9 4 -5 -13z"/>
<path d="M4080 5504 c0 -2 9 -8 20 -14 15 -8 18 -8 14 3 -4 11 -34 21 -34 11z"/>
<path d="M5635 4841 c-3 -5 -2 -12 3 -15 5 -3 9 1 9 9 0 17 -3 19 -12 6z"/>
<path d="M5071 3947 c-8 -10 -7 -14 2 -14 8 0 14 6 14 14 0 7 -1 13 -2 13 -2
0 -8 -6 -14 -13z"/>
<path d="M4740 3750 c-12 -7 -10 -9 7 -7 12 0 19 5 17 9 -6 10 -6 10 -24 -2z"/>
<path d="M3935 3390 c-3 -5 -1 -10 4 -10 6 0 11 5 11 10 0 6 -2 10 -4 10 -3 0
-8 -4 -11 -10z"/>
<path d="M3776 3327 c3 -10 9 -15 12 -12 3 3 0 11 -7 18 -10 9 -11 8 -5 -6z"/>
<path d="M3420 2802 c0 -5 7 -15 15 -22 8 -7 15 -9 15 -6 0 4 -7 14 -15 22 -8
9 -15 11 -15 6z"/>
<path d="M4096 2407 c3 -10 9 -15 12 -12 3 3 0 11 -7 18 -10 9 -11 8 -5 -6z"/>
<path d="M5235 2319 c-4 -6 -5 -12 -2 -15 2 -3 7 2 10 11 7 17 1 20 -8 4z"/>
<path d="M5033 2255 c0 -8 4 -12 9 -9 5 3 6 10 3 15 -9 13 -12 11 -12 -6z"/>
<path d="M5150 2240 c-13 -8 -12 -10 3 -10 9 0 17 5 17 10 0 12 -1 12 -20 0z"/>
<path d="M2895 2200 c3 -5 8 -10 11 -10 2 0 4 5 4 10 0 6 -5 10 -11 10 -5 0
-7 -4 -4 -10z"/>
<path d="M2845 2130 c-16 -17 -16 -20 -3 -15 9 4 19 13 22 21 7 19 2 18 -19
-6z"/>
<path d="M5001 2084 c0 -11 3 -14 6 -6 3 7 2 16 -1 19 -3 4 -6 -2 -5 -13z"/>
<path d="M4876 1975 c-9 -26 -7 -32 5 -12 6 10 9 21 6 23 -2 3 -7 -2 -11 -11z"/>
<path d="M3369 1903 c-13 -16 -12 -17 4 -4 9 7 17 15 17 17 0 8 -8 3 -21 -13z"/>
<path d="M4735 1840 c-10 -11 -15 -20 -11 -20 11 0 39 30 34 36 -3 2 -13 -5
-23 -16z"/>
<path d="M3474 1829 c-4 -7 -3 -9 4 -5 5 3 13 0 15 -6 4 -9 6 -10 6 -1 1 17
-16 25 -25 12z"/>
<path d="M2516 1621 c-3 -5 1 -11 9 -14 9 -4 12 -1 8 9 -6 16 -10 17 -17 5z"/>
<path d="M4510 1620 c0 -5 5 -10 11 -10 5 0 7 5 4 10 -3 6 -8 10 -11 10 -2 0
-4 -4 -4 -10z"/>
<path d="M4431 1547 c-8 -10 -7 -14 2 -14 8 0 14 6 14 14 0 7 -1 13 -2 13 -2
0 -8 -6 -14 -13z"/>
<path d="M1745 1489 c-4 -5 -4 -13 -1 -16 3 -4 6 0 6 8 0 11 2 11 10 -1 6 -9
10 -10 10 -3 0 17 -17 25 -25 12z"/>
<path d="M1275 1479 c-4 -6 -4 -13 -1 -16 3 -4 6 -1 6 6 0 7 5 9 12 5 7 -4 8
-3 4 4 -9 15 -13 15 -21 1z"/>
<path d="M1713 1475 c0 -8 4 -12 9 -9 5 3 6 10 3 15 -9 13 -12 11 -12 -6z"/>
<path d="M920 1470 c-9 -6 -10 -10 -3 -10 6 0 15 5 18 10 8 12 4 12 -15 0z"/>
<path d="M2195 1470 c-3 -5 -1 -10 4 -10 6 0 11 5 11 10 0 6 -2 10 -4 10 -3 0
-8 -4 -11 -10z"/>
<path d="M4592 5097 c-10 -12 -10 -17 -1 -23 8 -5 9 -3 4 6 -6 10 -4 12 8 7 9
-3 19 -1 23 5 4 6 3 8 -4 4 -5 -3 -12 -1 -14 5 -2 7 -8 6 -16 -4z"/>
<path d="M4546 5088 c3 -5 10 -6 15 -3 13 9 11 12 -6 12 -8 0 -12 -4 -9 -9z"/>
<path d="M4230 5079 c0 -5 5 -7 10 -4 6 3 10 8 10 11 0 2 -4 4 -10 4 -5 0 -10
-5 -10 -11z"/>
<path d="M4842 5064 c-7 -8 -8 -14 -3 -14 10 0 25 19 20 25 -2 1 -10 -3 -17
-11z"/>
<path d="M3891 5034 c0 -11 3 -14 6 -6 3 7 2 16 -1 19 -3 4 -6 -2 -5 -13z"/>
<path d="M5220 4530 c-9 -6 -10 -10 -3 -10 6 0 15 5 18 10 8 12 4 12 -15 0z"/>
<path d="M3705 4360 c3 -5 8 -10 11 -10 2 0 4 5 4 10 0 6 -5 10 -11 10 -5 0
-7 -4 -4 -10z"/>
<path d="M4953 4214 c0 -16 13 -19 21 -5 3 5 0 11 -7 14 -8 3 -14 -1 -14 -9z"/>
<path d="M3583 3875 c0 -8 4 -12 9 -9 5 3 6 10 3 15 -9 13 -12 11 -12 -6z"/>
<path d="M3780 3554 c0 -8 5 -12 10 -9 6 4 8 11 5 16 -9 14 -15 11 -15 -7z"/>
<path d="M3461 3461 c-7 -5 -9 -11 -5 -14 5 -3 15 1 22 9 14 16 5 18 -17 5z"/>
</g>
</svg>
