<svg width="100" height="100" viewBox="0 0 100 100" fill="none" xmlns="http://www.w3.org/2000/svg">
<path d="M40.7407 77.7778C45.8518 77.7778 50 73.6296 50 68.5185V59.2593H40.7407C35.6296 59.2593 31.4814 63.4074 31.4814 68.5185C31.4814 73.6296 35.6296 77.7778 40.7407 77.7778Z" fill="#0ACF83"/>
<path d="M31.4814 49.9998C31.4814 44.8887 35.6296 40.7406 40.7407 40.7406H50V59.2591H40.7407C35.6296 59.2591 31.4814 55.1109 31.4814 49.9998Z" fill="#A259FF"/>
<path d="M31.4814 31.4814C31.4814 26.3703 35.6296 22.2222 40.7407 22.2222H50V40.7407H40.7407C35.6296 40.7407 31.4814 36.5925 31.4814 31.4814Z" fill="#F24E1E"/>
<path d="M50 22.2222H59.2593C64.3704 22.2222 68.5186 26.3703 68.5186 31.4814C68.5186 36.5925 64.3704 40.7407 59.2593 40.7407H50V22.2222Z" fill="#FF7262"/>
<path d="M68.5186 49.9998C68.5186 55.1109 64.3704 59.2591 59.2593 59.2591C54.1482 59.2591 50 55.1109 50 49.9998C50 44.8887 54.1482 40.7406 59.2593 40.7406C64.3704 40.7406 68.5186 44.8887 68.5186 49.9998Z" fill="#1ABCFE"/>
</svg>
