<svg width="100" height="100" viewBox="0 0 100 100" fill="none" xmlns="http://www.w3.org/2000/svg">
<path d="M47.7255 22.8149C49.103 22.0264 50.8972 22.0228 52.2736 22.8149C59.1978 26.7274 66.1242 30.6338 73.0472 34.5487C74.3493 35.2822 75.2203 36.7314 75.2071 38.2318V61.7711C75.2168 63.3337 74.2597 64.8174 72.8859 65.5343C65.9845 69.4253 59.0866 73.321 52.1863 77.212C50.7803 78.0159 48.95 77.954 47.588 77.0842C45.5189 75.8847 43.4463 74.6912 41.377 73.4929C40.9542 73.2409 40.4775 73.0402 40.179 72.6303C40.4429 72.2745 40.9148 72.2302 41.2983 72.0749C42.162 71.8002 42.9552 71.3594 43.7486 70.9316C43.9493 70.7943 44.1942 70.8469 44.3865 70.9698C46.1558 71.9842 47.9095 73.0282 49.6847 74.0329C50.0634 74.2515 50.4469 73.9613 50.7706 73.7808C57.543 69.9532 64.3238 66.14 71.0951 62.3111C71.346 62.1904 71.4847 61.9241 71.4643 61.6493C71.469 53.8841 71.4655 46.1176 71.4667 38.3525C71.4954 38.0406 71.3149 37.7539 71.0329 37.6263C64.1554 33.7531 57.2815 29.874 50.4051 25.9999C50.286 25.918 50.1449 25.874 50.0003 25.8738C49.8557 25.8736 49.7145 25.9171 49.5951 25.9987C42.7187 29.874 35.846 33.7567 28.9696 37.6297C28.6887 37.7575 28.5001 38.0394 28.5335 38.3525C28.5347 46.1176 28.5335 53.8841 28.5335 61.6504C28.5216 61.7845 28.5511 61.9191 28.6179 62.0359C28.6848 62.1528 28.7859 62.2463 28.9075 62.304C30.7425 63.3445 32.5798 64.3778 34.416 65.4148C35.4504 65.9716 36.7205 66.3024 37.8602 65.8758C38.866 65.5151 39.5709 64.4888 39.5517 63.4209C39.5612 55.7011 39.547 47.9801 39.5589 40.2614C39.5337 39.9187 39.8588 39.6356 40.192 39.6679C41.0737 39.6619 41.9566 39.656 42.8383 39.6702C43.2063 39.6619 43.4595 40.0309 43.414 40.3762C43.4105 48.1449 43.4235 55.9138 43.4081 63.6825C43.4105 65.7529 42.5599 68.0058 40.6447 69.0189C38.2854 70.2411 35.3693 69.9819 33.0385 68.8099C31.0207 67.8028 29.0951 66.6142 27.1131 65.5353C25.7358 64.8224 24.7834 63.3327 24.7931 61.7713V38.2318C24.7787 36.7003 25.6843 35.2248 27.027 34.502C33.9273 30.6079 40.8264 26.7108 47.7255 22.8149Z" fill="#8CC84B"/>
<path d="M53.745 39.1207C56.7545 38.927 59.9763 39.0059 62.6845 40.4885C64.7812 41.6246 65.9437 44.0091 65.9807 46.3385C65.9221 46.6527 65.5937 46.8261 65.2937 46.8045C64.4205 46.8033 63.5472 46.8164 62.674 46.7986C62.3036 46.8128 62.0883 46.4713 62.0418 46.1438C61.7909 45.0293 61.1831 43.9254 60.134 43.3878C58.5236 42.5815 56.6564 42.6221 54.9003 42.6389C53.6184 42.7069 52.2399 42.8179 51.1538 43.5718C50.32 44.1428 50.0668 45.2956 50.3643 46.224C50.6449 46.8906 51.4144 47.1056 52.044 47.3039C55.6708 48.2524 59.5141 48.1581 63.0717 49.4064C64.5446 49.9153 65.9854 50.9046 66.4896 52.4467C67.1491 54.5136 66.86 56.9841 65.3895 58.6434C64.1969 60.0089 62.4601 60.7521 60.7278 61.1557C58.4233 61.6695 56.0317 61.6826 53.6914 61.4545C51.4908 61.2036 49.2007 60.6254 47.5019 59.126C46.0491 57.8646 45.3396 55.8993 45.41 54.0023C45.4269 53.682 45.7458 53.4586 46.0527 53.4849C46.932 53.4778 47.8113 53.4754 48.6906 53.4861C49.0418 53.461 49.3022 53.7645 49.3202 54.0955C49.4825 55.1575 49.8816 56.272 50.8076 56.9016C52.5947 58.0546 54.837 57.9756 56.8833 58.0079C58.5786 57.9327 60.4817 57.9099 61.8651 56.7894C62.595 56.1504 62.8113 55.0811 62.614 54.1612C62.4003 53.3846 61.5879 53.0227 60.8903 52.7861C57.3099 51.6535 53.4237 52.0645 49.878 50.7837C48.4385 50.275 47.0466 49.3132 46.4935 47.8344C45.7219 45.7414 46.0755 43.1525 47.7001 41.5492C49.2842 39.9545 51.5709 39.3403 53.745 39.1205V39.1207Z" fill="#8CC84B"/>
</svg>
