<svg width="100" height="100" viewBox="0 0 100 100" fill="none" xmlns="http://www.w3.org/2000/svg">
<path d="M74.4929 22.2222L70.0302 72.2164L49.9699 77.7777L29.9649 72.2242L25.5068 22.2222H74.4929Z" fill="#264DE4"/>
<path d="M66.2097 69.0329L70.0234 26.3105H50V73.5268L66.2097 69.0329Z" fill="#2965F1"/>
<path d="M35.7266 44.8556L36.2762 50.9881H49.9997V44.8556H35.7266Z" fill="#EBEBEB"/>
<path d="M49.9996 32.4431H49.9784H34.6221L35.1795 38.5757H49.9996V32.4431Z" fill="#EBEBEB"/>
<path d="M50.0002 67.1628V60.7824L49.9734 60.7895L43.1435 58.9453L42.7069 54.0543H39.3881H36.5508L37.4099 63.6833L49.972 67.1706L50.0002 67.1628Z" fill="#EBEBEB"/>
<path d="M57.5301 50.988L56.8182 58.9415L49.9785 60.7875V67.1677L62.5506 63.6834L62.6428 62.6473L64.0839 46.5023L64.2335 44.8555L65.3406 32.4431H49.9785V38.5757H58.6199L58.0619 44.8555H49.9785V50.988H57.5301Z" fill="#EBEBEB"/>
</svg>
