<svg width="100" height="100" viewBox="0 0 100 100" fill="none" xmlns="http://www.w3.org/2000/svg">
<path d="M77.7782 22.2222H22.2227V77.7777H77.7782V22.2222Z" fill="#F7DF1E"/>
<path d="M59.5419 65.6252C60.661 67.4524 62.1169 68.7954 64.6919 68.7954C66.855 68.7954 68.2368 67.7143 68.2368 66.2205C68.2368 64.4303 66.8171 63.7963 64.4361 62.7549L63.131 62.1949C59.3638 60.59 56.8612 58.5794 56.8612 54.3289C56.8612 50.4136 59.8444 47.433 64.5067 47.433C67.8259 47.433 70.2121 48.5882 71.9317 51.6129L67.8665 54.2231C66.9714 52.6182 66.0058 51.9859 64.5067 51.9859C62.9776 51.9859 62.0084 52.9559 62.0084 54.2231C62.0084 55.7892 62.9785 56.4233 65.2183 57.3933L66.5234 57.9524C70.959 59.8545 73.4635 61.7937 73.4635 66.1534C73.4635 70.8536 69.7712 73.4286 64.8127 73.4286C59.9643 73.4286 56.8321 71.1182 55.2994 68.09L59.5419 65.6252ZM41.1001 66.0776C41.9203 67.5326 42.6663 68.7628 44.4599 68.7628C46.1751 68.7628 47.2571 68.0917 47.2571 65.4824V47.731H52.4776V65.5529C52.4776 70.9586 49.3083 73.4189 44.6822 73.4189C40.5023 73.4189 38.0816 71.2557 36.8506 68.6504L41.1001 66.0776Z" fill="black"/>
</svg>
