<svg width="100" height="100" viewBox="0 0 100 100" fill="none" xmlns="http://www.w3.org/2000/svg">
<path d="M73.3951 65.1363C70.3724 65.0598 68.0297 65.3666 66.0649 66.2103C65.4981 66.4402 64.5911 66.4405 64.5155 67.1693C64.8179 67.4762 64.8556 67.9748 65.1202 68.3965C65.5741 69.1635 66.367 70.1992 67.085 70.7364C67.8783 71.35 68.6721 71.9635 69.5031 72.5005C70.9768 73.4211 72.6395 73.9579 74.0753 74.8785C74.9069 75.4151 75.7376 76.106 76.569 76.6812C76.9846 76.9876 77.249 77.4867 77.7782 77.6783V77.5634C77.5135 77.218 77.4379 76.7195 77.1736 76.3359C76.7961 75.9524 76.4178 75.6071 76.0399 75.2235C74.9442 73.728 73.5841 72.4238 72.1105 71.35C70.9015 70.5061 68.2562 69.3555 67.7652 67.9362C67.7652 67.9362 67.7272 67.8981 67.6896 67.8597C68.5208 67.783 69.5031 67.4762 70.2968 67.246C71.5815 66.9006 72.7527 66.9775 74.0753 66.6323C74.6797 66.4788 75.2844 66.287 75.8888 66.0952V65.7502C75.209 65.0598 74.7177 64.1394 73.9997 63.4873C72.0727 61.7993 69.9565 60.1503 67.7652 58.7696C66.5937 58.0024 65.0822 57.5037 63.8353 56.8519C63.3823 56.6215 62.6263 56.5066 62.362 56.123C61.6816 55.2794 61.3037 54.1672 60.8126 53.1699C59.7172 51.0601 58.6589 48.7207 57.7142 46.4963C57.0344 45.0003 56.6187 43.5043 55.7873 42.1238C51.8955 35.6035 47.6636 31.653 41.1647 27.779C39.7665 26.9736 38.104 26.6284 36.3281 26.2067C35.3838 26.1681 34.4389 26.0916 33.4944 26.053C32.8897 25.7845 32.2851 25.0559 31.7561 24.7107C29.6027 23.3298 24.048 20.3384 22.461 24.289C21.4407 26.7818 23.9726 29.2364 24.8413 30.5024C25.4842 31.3845 26.3151 32.3816 26.7686 33.3789C27.0331 34.0306 27.1084 34.7215 27.373 35.4117C27.9778 37.0988 28.5442 38.9786 29.338 40.5513C29.7537 41.3567 30.2069 42.2003 30.736 42.9291C31.0383 43.3509 31.5671 43.5429 31.6807 44.2331C31.1519 45.0003 31.1139 46.1511 30.8113 47.1098C29.4512 51.4439 29.9804 56.8135 31.9072 59.9968C32.5116 60.9554 33.9476 63.0656 35.8747 62.2598C37.5752 61.5696 37.1973 59.3833 37.6881 57.4656C37.8019 57.0049 37.7263 56.6984 37.9528 56.3916V56.4685C38.4819 57.5421 39.0107 58.578 39.502 59.6518C40.6734 61.531 42.7136 63.4873 44.4139 64.7915C45.3211 65.4815 46.0388 66.6706 47.1725 67.0926V66.9773H47.0967C46.87 66.632 46.5299 66.4788 46.2278 66.2101C45.5478 65.5201 44.7918 64.6762 44.263 63.909C42.6763 61.7609 41.2778 59.3831 40.031 56.9284C39.4266 55.7397 38.8973 54.4355 38.4063 53.2466C38.1794 52.7858 38.1794 52.0958 37.8017 51.8659C37.2348 52.7096 36.4037 53.4384 35.988 54.4738C35.2705 56.123 35.1947 58.1558 34.9301 60.2651C34.779 60.3039 34.8543 60.2651 34.7788 60.3423C33.57 60.035 33.1543 58.7696 32.7006 57.6955C31.5669 54.9725 31.378 50.6 32.3607 47.4551C32.6252 46.6495 33.7589 44.1183 33.3054 43.3511C33.0787 42.6223 32.3227 42.2003 31.9072 41.6252C31.4162 40.8964 30.8869 39.9762 30.547 39.1704C29.6401 37.0226 29.1866 34.6445 28.2043 32.4966C27.7509 31.4993 26.9577 30.4641 26.3151 29.5435C25.5973 28.508 24.8037 27.779 24.2369 26.5517C24.0482 26.13 23.7834 25.4395 24.0858 24.9792C24.1613 24.6723 24.3123 24.5575 24.6148 24.4808C25.1061 24.0586 26.5043 24.5956 26.9951 24.8258C28.3933 25.4007 29.5645 25.9382 30.736 26.7435C31.2648 27.1271 31.8317 27.8559 32.5116 28.0477H33.3052C34.5145 28.316 35.8744 28.1244 37.0081 28.4694C39.0109 29.1213 40.8244 30.0803 42.4493 31.116C47.3992 34.2993 51.4796 38.8252 54.2382 44.2331C54.6917 45.1149 54.8804 45.9209 55.2961 46.8411C56.0899 48.7207 57.0722 50.6384 57.8653 52.4794C58.6589 54.2818 59.4144 56.123 60.5481 57.619C61.115 58.4241 63.3819 58.8463 64.4022 59.2682C65.158 59.6133 66.3294 59.9203 67.0094 60.3421C68.294 61.1472 69.5786 62.0682 70.7879 62.95C71.3925 63.4103 73.2815 64.3693 73.3951 65.1363Z" fill="#14B8A6"/>
<path d="M34.8546 31.806C34.2124 31.806 33.7591 31.8832 33.3057 31.998V32.0748H33.3812C33.6838 32.6885 34.2124 33.1105 34.5901 33.6473C34.8926 34.2608 35.1569 34.8747 35.4594 35.4885C35.497 35.4499 35.5348 35.4118 35.5348 35.4118C36.064 35.028 36.3284 34.4144 36.3284 33.4938C36.1016 33.2255 36.0638 32.957 35.8749 32.6885C35.6484 32.3047 35.1569 32.1131 34.8546 31.806Z" fill="#14B8A6"/>
</svg>
