<svg width="100" height="100" viewBox="0 0 100 100" fill="none" xmlns="http://www.w3.org/2000/svg">
<path d="M49.8003 22.3667C35.6968 22.3667 36.5774 28.4828 36.5774 28.4828L36.5931 34.8193H50.0518V36.7216H31.2475C31.2475 36.7216 22.2227 35.6981 22.2227 49.9284C22.2227 64.1592 30.0997 63.6545 30.0997 63.6545H34.8008V57.0509C34.8008 57.0509 34.5473 49.1738 42.5521 49.1738H55.9007C55.9007 49.1738 63.4004 49.295 63.4004 41.9256V29.7408C63.4004 29.7408 64.5394 22.3667 49.8003 22.3667ZM42.3792 26.6278C42.6972 26.6276 43.0122 26.69 43.3061 26.8116C43.5999 26.9331 43.867 27.1115 44.0918 27.3364C44.3167 27.5613 44.4951 27.8283 44.6166 28.1222C44.7382 28.416 44.8007 28.731 44.8004 29.0491C44.8007 29.3671 44.7382 29.6821 44.6166 29.9759C44.4951 30.2698 44.3167 30.5369 44.0918 30.7617C43.867 30.9866 43.5999 31.165 43.3061 31.2865C43.0122 31.4081 42.6972 31.4705 42.3792 31.4703C42.0611 31.4705 41.7461 31.4081 41.4523 31.2865C41.1584 31.165 40.8914 30.9866 40.6665 30.7617C40.4416 30.5369 40.2632 30.2698 40.1417 29.9759C40.0201 29.6821 39.9577 29.3671 39.958 29.0491C39.9577 28.731 40.0201 28.416 40.1417 28.1222C40.2632 27.8283 40.4416 27.5613 40.6665 27.3364C40.8914 27.1115 41.1584 26.9331 41.4523 26.8116C41.7461 26.69 42.0611 26.6276 42.3792 26.6278Z" fill="#0891B2"/>
<path d="M50.2008 77.6334C64.3043 77.6334 63.4237 71.5173 63.4237 71.5173L63.408 65.1811H49.9491V63.2787H68.7534C68.7534 63.2787 77.7782 64.3022 77.7782 50.0714C77.7782 35.8409 69.9011 36.3456 69.9011 36.3456H65.2001V42.949C65.2001 42.949 65.4535 50.8261 57.4488 50.8261H44.1001C44.1001 50.8261 36.6005 50.7049 36.6005 58.0745V70.2595C36.6005 70.2595 35.4617 77.6334 50.2006 77.6334H50.2008ZM57.6219 73.3727C57.3039 73.373 56.9889 73.3106 56.695 73.189C56.4011 73.0674 56.1341 72.8891 55.9092 72.6642C55.6843 72.4393 55.506 72.1723 55.3844 71.8784C55.2629 71.5845 55.2004 71.2695 55.2007 70.9515C55.2004 70.6335 55.2628 70.3185 55.3844 70.0245C55.5059 69.7306 55.6843 69.4636 55.9092 69.2387C56.134 69.0138 56.4011 68.8354 56.695 68.7138C56.9889 68.5922 57.3039 68.5298 57.6219 68.5301C57.94 68.5298 58.2549 68.5922 58.5488 68.7138C58.8427 68.8354 59.1097 69.0137 59.3346 69.2386C59.5595 69.4635 59.7378 69.7305 59.8594 70.0244C59.981 70.3183 60.0434 70.6333 60.0431 70.9513C60.0434 71.2693 59.981 71.5843 59.8594 71.8782C59.7378 72.1721 59.5595 72.4391 59.3346 72.664C59.1097 72.8889 58.8427 73.0672 58.5488 73.1888C58.2549 73.3104 57.94 73.3728 57.6219 73.3725V73.3727Z" fill="#FACC15"/>
</svg>
