<svg width="100" height="100" viewBox="0 0 100 100" fill="none" xmlns="http://www.w3.org/2000/svg">
<path d="M49.9995 54.8979C52.7045 54.8979 54.8974 52.705 54.8974 50C54.8974 47.2949 52.7045 45.1021 49.9995 45.1021C47.2944 45.1021 45.1016 47.2949 45.1016 50C45.1016 52.705 47.2944 54.8979 49.9995 54.8979Z" fill="#61DAFB"/>
<path fill-rule="evenodd" clip-rule="evenodd" d="M26.9802 47.4196C25.8711 48.4208 25.504 49.2958 25.504 50C25.504 50.7042 25.8711 51.5792 26.9802 52.5805C28.0892 53.5816 29.7942 54.5649 32.053 55.4274C36.5583 57.1476 42.9029 58.249 49.9998 58.249C57.0966 58.249 63.4413 57.1476 67.9466 55.4274C70.2054 54.5649 71.9104 53.5816 73.0193 52.5805C74.1285 51.5792 74.4955 50.7042 74.4955 50C74.4955 49.2958 74.1285 48.4208 73.0193 47.4196C71.9104 46.4185 70.2054 45.4351 67.9466 44.5726C63.4413 42.8524 57.0966 41.751 49.9998 41.751C42.9029 41.751 36.5583 42.8524 32.053 44.5726C29.7942 45.4351 28.0892 46.4185 26.9802 47.4196ZM30.779 41.2361C35.7857 39.3245 42.5818 38.1796 49.9998 38.1796C57.4178 38.1796 64.2139 39.3245 69.2205 41.2361C71.7178 42.1896 73.8616 43.3685 75.4125 44.7685C76.9632 46.1684 78.067 47.9332 78.067 50C78.067 52.0668 76.9632 53.8317 75.4125 55.2315C73.8616 56.6315 71.7178 57.8104 69.2205 58.7639C64.2139 60.6755 57.4178 61.8205 49.9998 61.8205C42.5818 61.8205 35.7857 60.6755 30.779 58.7639C28.2818 57.8104 26.138 56.6315 24.5871 55.2315C23.0364 53.8317 21.9326 52.0668 21.9326 50C21.9326 47.9332 23.0364 46.1684 24.5871 44.7685C26.138 43.3685 28.2818 42.1896 30.779 41.2361Z" fill="#61DAFB"/>
<path fill-rule="evenodd" clip-rule="evenodd" d="M40.7249 28.7742C39.3032 28.3143 38.3619 28.4339 37.752 28.786C37.1422 29.1381 36.5679 29.8935 36.2554 31.3547C35.9429 32.8156 35.9437 34.7838 36.3262 37.1712C37.0891 41.9331 39.3076 47.9784 42.856 54.1245C46.4045 60.2705 50.5306 65.2144 54.2731 68.256C56.1494 69.781 57.8535 70.7658 59.2749 71.2257C60.6966 71.6856 61.6379 71.566 62.2478 71.2139C62.8576 70.8618 63.4319 70.1064 63.7444 68.6452C64.0569 67.1843 64.0561 65.2161 63.6736 62.8287C62.9106 58.0668 60.6922 52.0215 57.1438 45.8754C53.5953 39.7294 49.4691 34.7855 45.7267 31.7438C43.8504 30.2189 42.1463 29.234 40.7249 28.7742ZM47.9793 28.9723C52.1381 32.3524 56.5277 37.6655 60.2367 44.0897C63.9457 50.5139 66.3522 56.9719 67.2 62.2637C67.6229 64.9031 67.6738 67.3491 67.2368 69.3922C66.7999 71.4351 65.8234 73.2734 64.0335 74.3068C62.2436 75.3402 60.1633 75.2667 58.1756 74.6237C56.1878 73.9806 54.0949 72.7135 52.0205 71.0275C47.8617 67.6475 43.4721 62.3343 39.7631 55.9102C36.0541 49.486 33.6476 43.028 32.7998 37.7362C32.3769 35.0968 32.3259 32.6507 32.7629 30.6076C33.1999 28.5648 34.1764 26.7265 35.9663 25.6931C37.7562 24.6596 39.8365 24.7331 41.8242 25.3762C43.812 26.0192 45.9049 27.2864 47.9793 28.9723Z" fill="#61DAFB"/>
<path fill-rule="evenodd" clip-rule="evenodd" d="M63.7446 31.3546C63.4321 29.8934 62.8578 29.1381 62.248 28.786C61.6381 28.4339 60.6968 28.3142 59.2752 28.7742C57.8537 29.234 56.1496 30.2189 54.2733 31.7438C50.5309 34.7854 46.4047 39.7294 42.8562 45.8754C39.3078 52.0215 37.0894 58.0668 36.3264 62.8286C35.9439 65.216 35.9431 67.1843 36.2556 68.6452C36.5681 70.1064 37.1424 70.8618 37.7522 71.2139C38.3621 71.566 39.3034 71.6856 40.7251 71.2257C42.1465 70.7658 43.8506 69.781 45.7269 68.256C49.4694 65.2144 53.5956 60.2705 57.144 54.1244C60.6924 47.9784 62.9109 41.933 63.6738 37.1712C64.0563 34.7838 64.0571 32.8156 63.7446 31.3546ZM67.2002 37.7362C66.3524 43.0279 63.9459 49.486 60.2369 55.9102C56.5279 62.3343 52.1383 67.6474 47.9795 71.0275C45.9051 72.7134 43.8122 73.9806 41.8244 74.6237C39.8367 75.2667 37.7565 75.3402 35.9665 74.3068C34.1766 73.2734 33.2001 71.4351 32.7632 69.3922C32.3262 67.3491 32.3771 64.903 32.8 62.2637C33.6478 56.9719 36.0543 50.5139 39.7633 44.0897C43.4723 37.6655 47.8619 32.3524 52.0208 28.9723C54.0951 27.2864 56.188 26.0192 58.1759 25.3761C60.1635 24.7331 62.2438 24.6596 64.0337 25.693C65.8236 26.7265 66.8001 28.5648 67.2371 30.6076C67.6741 32.6507 67.6231 35.0968 67.2002 37.7362Z" fill="#61DAFB"/>
</svg>
