<svg width="100" height="100" viewBox="0 0 100 100" fill="none" xmlns="http://www.w3.org/2000/svg">
<path d="M42.7096 65.1865C42.7096 65.1865 40.5867 66.421 44.2205 66.8387C48.6229 67.3409 50.8728 67.269 55.7243 66.3507C55.7243 66.3507 56.9998 67.1505 58.781 67.8433C47.9055 72.5043 34.1674 67.5732 42.7096 65.1865ZM41.3807 59.104C41.3807 59.104 38.9996 60.8666 42.6361 61.2427C47.3388 61.7278 51.0526 61.7676 57.479 60.5301C57.479 60.5301 58.3679 61.4312 59.7656 61.9241C46.6163 65.7691 31.9704 62.2273 41.3807 59.104Z" fill="#14B8A6"/>
<path d="M52.5839 48.7862C55.2637 51.8714 51.8798 54.6477 51.8798 54.6477C51.8798 54.6477 58.6841 51.1351 55.5592 46.7365C52.6407 42.6347 50.4024 40.5964 62.5189 33.5693C62.5189 33.5693 43.5001 38.3193 52.5839 48.786" fill="#EA580C"/>
<path d="M66.9678 69.6855C66.9678 69.6855 68.5389 70.9799 65.2375 71.9814C58.9601 73.8831 39.1099 74.4574 33.5955 72.0571C31.6133 71.1949 35.3306 69.9982 36.4999 69.7469C37.7193 69.4825 38.4163 69.5319 38.4163 69.5319C36.2118 67.9788 24.1674 72.5812 32.2984 73.8991C54.4725 77.4951 72.7195 72.2799 66.9678 69.6855ZM43.7304 52.802C43.7304 52.802 33.6335 55.2003 40.1549 56.071C42.9084 56.4397 48.3975 56.3564 53.5106 55.9278C57.6892 55.5756 61.8851 54.826 61.8851 54.826C61.8851 54.826 60.4116 55.457 59.3457 56.1849C49.0922 58.8816 29.2845 57.6271 34.9869 54.8686C39.8094 52.5375 43.7305 52.802 43.7305 52.802H43.7304ZM61.8434 62.9264C72.2667 57.5102 67.4473 52.3053 64.0836 53.0066C63.2591 53.1781 62.8915 53.3267 62.8915 53.3267C62.8915 53.3267 63.1976 52.8473 63.7822 52.6398C70.4366 50.3002 75.5545 59.54 61.634 63.1994C61.634 63.1996 61.7953 63.0554 61.8434 62.9264Z" fill="#14B8A6"/>
<path d="M55.559 22.2223C55.559 22.2223 61.3315 27.997 50.084 36.8762C41.0648 43.9991 48.0274 48.0603 50.0803 52.7004C44.8156 47.9504 40.9519 43.7689 43.5441 39.8772C47.3484 34.1642 57.888 31.3945 55.559 22.2222" fill="#EA580C"/>
<path d="M44.7547 77.6031C54.7596 78.2436 70.1232 77.2478 70.487 72.5137C70.487 72.5137 69.7876 74.3085 62.2185 75.7337C53.6792 77.3406 43.1471 77.153 36.9004 76.1231C36.9006 76.1231 38.1792 77.1815 44.7549 77.6031" fill="#14B8A6"/>
</svg>
