<svg width="100" height="100" viewBox="0 0 100 100" fill="none" xmlns="http://www.w3.org/2000/svg">
<path d="M56.2808 42.2887L50.7248 47.4618L45.5674 37.0547L48.2317 31.0708C48.905 29.8772 50.0063 29.8614 50.6797 31.0708L56.2808 42.2887Z" fill="#FFA000"/>
<path d="M50.727 47.4597L29.9443 66.7897L45.5696 37.0548L50.727 47.4597Z" fill="#F57F17"/>
<path d="M62.3728 34.377C63.3682 33.4288 64.3929 33.7486 64.6519 35.0954L70.0548 66.5284L52.1346 77.2869C51.5062 77.6382 49.8397 77.7756 49.8397 77.7756C49.8397 77.7756 48.324 77.5909 47.7429 77.2711L29.9443 66.7897L62.3728 34.377Z" fill="#FFCA28"/>
<path d="M45.5696 37.0548L29.9443 66.7896L36.9079 23.328C37.1692 21.9813 37.9326 21.8439 38.6218 23.0375L45.5696 37.0548Z" fill="#FFA000"/>
</svg>
